<?xml version="1.0" encoding="utf-8"?>
<!-- Generator: Adobe Illustrator 28.0.0, SVG Export Plug-In . SVG Version: 6.00 Build 0)  -->
<svg version="1.1" id="Layer_1" xmlns="http://www.w3.org/2000/svg" xmlns:xlink="http://www.w3.org/1999/xlink" x="0px" y="0px"
	 viewBox="0 0 148 42" style="enable-background:new 0 0 148 42;" xml:space="preserve">
<style type="text/css">
	.st0{fill:#FEB92E;}
	.st1{fill:#0F232C;}
	.st2{fill:#0F1A47;}
	.st3{fill:#FFFFFF;}
</style>
<circle id="Ellipse_312" class="st0" cx="15.3" cy="18.2" r="15.3"/>
<path id="Path_32550" class="st1" d="M44.3,40.2V18.9l3.1-0.9l0.4,1.7c1-1,2.9-1.6,4.3-1.7c3.3,0,6.4,2.8,6.4,8.7
	c0,5.7-2.8,8.9-7,8.9c-1.1,0-3-0.3-3.8-0.9v5.7L44.3,40.2z M50.6,20.9c-0.9,0-2.3,0.3-2.9,0.9v10.7c0.6,0.3,1.9,0.6,2.7,0.6
	c2.7,0,5.2-2.1,5.2-6.1C55.7,22.9,53.3,20.9,50.6,20.9L50.6,20.9z"/>
<path id="Path_32551" class="st1" d="M64,32.9c0,1.2,0.7,1.8,1.6,1.8c1-0.1,1.8-0.6,2.3-1.5V25l2.9-0.6v12.1H69l-1-1.4
	c-0.7,1-1.9,1.6-3.1,1.6c-1.9,0.2-3.6-1.2-3.7-3.1c0-0.2,0-0.4,0-0.6v-8l2.9-0.6L64,32.9z"/>
<path id="Path_32552" class="st1" d="M73.7,36.4V20.7l2.9-0.6v5.4c0.7-0.7,1.6-1,2.6-1.1c2.3,0,4.5,2,4.5,6.1c0,3.9-2,6.3-4.9,6.3
	c-1,0-1.9-0.3-2.6-0.9l-0.5,0.7h-2V36.4z M78.1,26.4c-0.6,0-1.2,0.2-1.6,0.6v7.5c0.5,0.2,1,0.3,1.5,0.3c1.9,0,2.7-1.5,2.7-4.3
	C80.7,27.8,80,26.4,78.1,26.4L78.1,26.4z"/>
<path id="Path_32553" class="st1" d="M86,20.7l2.8-0.6v13.5c0,0.7,0.3,0.9,0.8,0.9c0.3,0,0.7-0.1,1-0.2l0.4,1.6
	c-0.7,0.5-1.5,0.8-2.4,0.8c-1,0-2.5-0.5-2.5-2.9L86,20.7z"/>
<path id="Path_32554" class="st1" d="M92.2,21.7c0-0.9,0.8-1.7,1.7-1.7c0.9,0,1.7,0.8,1.7,1.7c0,0.9-0.8,1.7-1.7,1.7
	S92.2,22.6,92.2,21.7z M92.5,36.4V25l2.9-0.6v12.1L92.5,36.4z"/>
<path id="Path_32555" class="st1" d="M104.8,27.1c-0.7-0.5-1.6-0.8-2.4-0.8c-1.1,0-1.7,0.5-1.7,1.3c0,1.9,5,1.6,5,5.3
	c0,2.6-2.1,3.7-4.3,3.7c-1.4,0-2.7-0.4-3.8-1.2l0.7-1.6c0.9,0.5,2,0.8,3,0.8c1.1,0,1.9-0.6,1.9-1.5c0-1.9-5.2-1.7-5.2-5.3
	c0-2.7,2.2-3.5,4.2-3.5c1.3,0,2.5,0.4,3.6,1.1L104.8,27.1z"/>
<path id="Path_32556" class="st1" d="M107.9,36.4V20.7l2.9-0.6V26c0.7-1,1.8-1.6,3.1-1.6c1.9-0.2,3.6,1.2,3.7,3.1c0,0.2,0,0.4,0,0.6
	v8.4h-2.9v-8.3c0-1.2-0.7-1.8-1.6-1.8c-1,0.1-1.8,0.6-2.3,1.4v8.6H107.9z"/>
<path id="Path_32557" class="st1" d="M122.6,30.9c0.1,2.5,1,3.8,2.8,3.8c1.2,0,2.4-0.4,3.4-1l0.8,1.5c-1.3,1-2.9,1.6-4.6,1.6
	c-2.9,0-5.3-1.6-5.3-5.7c0-4.5,1.8-6.6,5.1-6.6c3.3,0,4.5,1.9,4.5,5.7c0,0.3,0,0.7,0,0.8L122.6,30.9z M126.9,29c0-1.3-0.3-2.7-2-2.7
	s-2.1,1.4-2.2,2.7H126.9z"/>
<path id="Path_32558" class="st1" d="M131.9,36.4V24.9l2.3-0.5l0.4,1.6c0.8-1,2.1-1.6,3.4-1.6c0.4,0,0.9,0.1,1.2,0.2l-0.8,2.4
	c-0.4-0.2-0.8-0.3-1.3-0.3c-0.9,0.1-1.7,0.5-2.3,1.2v8.6L131.9,36.4z"/>
<path id="Path_32559" class="st1" d="M147,27.1c-0.7-0.5-1.6-0.8-2.4-0.8c-1.1,0-1.7,0.5-1.7,1.3c0,1.9,5,1.6,5,5.3
	c0,2.6-2.1,3.7-4.3,3.7c-1.4,0-2.7-0.4-3.8-1.2l0.7-1.6c0.9,0.5,2,0.8,3,0.8c1.1,0,1.9-0.6,1.9-1.5c0-1.9-5.2-1.7-5.2-5.3
	c0-2.7,2.2-3.5,4.2-3.5c1.3,0,2.5,0.4,3.6,1.1L147,27.1z"/>
<path id="Path_32560" class="st1" d="M45.6,10V9.8V9.7l0.1-0.3c0.1-0.3,0.3-0.7,0.5-1c0.1-0.1,0.2-0.3,0.3-0.4
	c0-0.1,0.1-0.2,0.2-0.3c0.1-0.1,0.2-0.2,0.2-0.3L47,7.3c0-0.2,0.1-0.3,0.2-0.4c0.1-0.1,0.2-0.2,0.3-0.4c0.1-0.2,0.2-0.3,0.3-0.5
	c0-0.1,0.1-0.2,0.2-0.4c0.1-0.1,0.2-0.2,0.3-0.4C48.4,5.1,48.5,5,48.6,5c0-0.1,0.1-0.3,0.2-0.4c0.1-0.1,0.2-0.2,0.3-0.3
	s0.1-0.1,0.2-0.2L49.4,4c0.1-0.1,0.2-0.2,0.4-0.3c0.1-0.1,0.3-0.2,0.4-0.3l0.3-0.1l0,0V3.2c0.1,0,0.1-0.1,0.2-0.1
	c-0.1-0.1,0-0.1,0-0.2L51,2.6c0.1-0.1,0.2-0.1,0.3-0.2c0.1,0,0.1-0.1,0.2-0.2c0-0.1,0.2-0.1,0.4-0.2c0.1-0.2,0.3-0.3,0.6-0.3
	c0.2-0.2,0.5-0.4,0.8-0.5C53.5,1.1,53.8,1,54.1,1c0.2,0,0.3,0,0.4,0.1h0.2c0,0,0.1,0,0.2,0.1l0,0H55c0.2,0.2,0.4,0.6,0.4,0.9
	c0,0.2,0,0.3,0,0.5c-0.1,0.2-0.1,0.4-0.1,0.6c0,0.1,0,0.3-0.1,0.4l-0.1,0.3c0,0.4-0.2,0.6-0.4,0.6C54.2,4.5,54,4.3,54,4
	c0-0.2,0.1-0.5,0.3-0.6c0.4-0.2,0.6-0.7,0.5-1.1c0-0.1-0.1-0.2-0.2-0.2l0,0c-0.1,0-0.1,0.1-0.2,0.1l-0.2-0.1l0,0h-0.1
	c0,0-0.1,0-0.2,0.1c-0.1,0.1-0.2,0.1-0.4,0.2S53.2,2.6,53,2.7c0,0.2-0.1,0.3-0.3,0.4s-0.4,0.2-0.5,0.4l0,0l0,0H52
	c0,0-0.1,0.1-0.2,0.3h-0.1h-0.1c-0.1,0-0.1,0.1-0.2,0.1V4c0,0.1-0.1,0.2-0.2,0.3L51,4.6c-0.1,0-0.1,0.1-0.2,0.1
	c-0.1,0-0.1,0.1-0.2,0.1c-0.1,0-0.1,0.1-0.2,0.2c-0.1,0.1-0.2,0.3-0.5,0.4c0,0,0,0,0,0.1v0.1l0,0c0,0.1-0.2,0.4-0.6,0.7l0,0
	c0,0.2-0.1,0.3-0.2,0.4C49,6.9,48.9,7,48.8,7.2c-0.1,0.1-0.1,0.1-0.1,0.2v0.2c0,0.1-0.1,0.2-0.2,0.2c-0.1,0.1-0.2,0.1-0.2,0.2
	s-0.1,0.3-0.2,0.3c-0.1,0-0.2,0.1-0.2,0.2L48,8.6l0,0C48,8.8,47.9,9,47.7,9l0,0c0,0.1-0.1,0.2-0.2,0.3c-0.1,0.1-0.2,0.2-0.3,0.3l0,0
	v0.3c-0.1,0.3-0.3,0.6-0.6,0.9c-0.1,0-0.1,0-0.1,0.1v0.2l0,0c0,0.1,0,0.3-0.1,0.4l-0.1,0.1l0.1,0.2c0,0.1,0,0.1-0.1,0.1
	S46.2,12,46.2,12s0,0,0,0.1v0.1c0,0.2-0.1,0.4-0.2,0.6V13v0.2c0,0,0,0.1,0.1,0.1c0,0.1,0.1,0.1,0.1,0.2l-0.1,0.2c0,0,0,0,0,0.1
	c0,0.2,0,0.4,0.1,0.5c0.1,0.2,0.2,0.3,0.3,0.3c0.2,0,0.4,0,0.4-0.1c0.1-0.1,0.3-0.3,0.5-0.4c0.2-0.1,0.3-0.3,0.5-0.4
	c0.1-0.1,0.1-0.1,0.2-0.2c0.2-0.2,0.4-0.4,0.6-0.7c0.3-0.4,0.6-0.8,0.9-1.2c0,0,0-0.1,0.1-0.1c0.1-0.1,0.1-0.2,0.2-0.3
	c0.2-0.2,0.4-0.5,0.6-0.7l0.2-0.2c0.2-0.2,0.3-0.3,0.4-0.4c0-0.1,0.1-0.1,0.2-0.2c0.1-0.1,0.1-0.1,0.2-0.2c0-0.1,0.1-0.1,0.2-0.2
	c0.1,0,0.1-0.1,0.1-0.1V9c0.1-0.1,0.2-0.2,0.3-0.3V8.6c0-0.1,0.1-0.3,0.2-0.3c0.1,0,0.2-0.1,0.2-0.1c0-0.1,0-0.1,0.1-0.2V7.9
	c0-0.1,0.1-0.2,0.2-0.3l0.1-0.2l0.2-0.2l0,0V7c0,0,0.1-0.1,0.3-0.2l0,0V6.4c0-0.1,0.1-0.1,0.2-0.2c0-0.1,0.1-0.2,0.2-0.3
	c0-0.2,0.1-0.3,0.2-0.5c0.1-0.1,0.2-0.3,0.3-0.4s0.2-0.2,0.4-0.2S55,4.9,55.2,5c0.2,0.1,0.4,0.3,0.4,0.6c0,0.1-0.1,0.2-0.1,0.3
	c-0.1,0.3-0.2,0.6-0.2,0.9C55.2,7,55.1,7.2,55,7.4c0,0.1,0.1,0.2,0.1,0.2C55,7.8,55,7.9,54.9,8c0,0.1,0,0.2-0.1,0.3v0.2
	c0,0.1-0.1,0.2-0.3,0.3c0,0,0,0.1-0.1,0.3c0,0.2-0.1,0.3-0.1,0.3v0.3c0,0.1,0,0.2-0.1,0.2C54.1,10,54,10.1,54,10.2
	c0,0.1,0,0.1-0.1,0.2c0,0.1,0,0.2,0,0.3s0,0.2-0.1,0.2c0,0.1,0,0.2-0.1,0.2c0,0.1-0.1,0.1-0.1,0.2c0,0.1,0,0.1,0.1,0.2
	c0,0.1,0,0.2-0.1,0.3s-0.1,0.1-0.1,0.2c0,0.1,0,0.1,0.1,0.2c0,0.1-0.1,0.2-0.1,0.4v0.1v0.6l-0.1,0.1v0.1c0,0.1,0,0.1,0.1,0.1
	s0.2-0.1,0.3-0.2c0.1-0.1,0.2-0.1,0.3-0.2c0.3-0.3,0.6-0.5,0.9-0.6l1.4-1.2c0.1-0.1,0.2-0.1,0.2-0.1c0.1,0,0.2,0.1,0.2,0.2
	c0,0.2,0,0.4-0.1,0.6V12c0,0.2-0.1,0.4-0.3,0.5c0,0.1-0.1,0.1-0.1,0.1c-0.1,0-0.1,0.1-0.2,0.2C56,12.9,55.9,13,55.8,13
	c-0.1,0-0.2,0.1-0.3,0.2h-0.1c-0.1,0-0.2,0.1-0.2,0.2c0,0.1-0.1,0.2-0.1,0.2c-0.2,0-0.4,0.1-0.7,0.4h-0.1l-0.1,0.1
	c0,0.1-0.1,0.1-0.2,0.1h-0.2l-0.6,0.1c-0.1,0-0.2-0.1-0.2-0.2h-0.2L52.7,14c-0.2-0.1-0.3-0.3-0.5-0.6c-0.1-0.3-0.2-0.6-0.2-0.9
	c0-0.2,0-0.5,0.1-0.7s0.1-0.5,0.1-0.7s0-0.3,0.1-0.5c0.1-0.1,0.1-0.3,0.1-0.4c0-0.1,0-0.2,0.1-0.3c0.1-0.2,0.1-0.3,0.1-0.5l0,0
	c-0.2,0.3-0.5,0.7-0.8,0.9c-0.1,0-0.1,0.1-0.2,0.2c0,0.1,0.1,0.1,0.1,0.2c0,0.1-0.1,0.3-0.4,0.6l-0.1,0.2l-0.1,0.1h-0.2l-0.1,0.1
	l0.1,0.2c0,0.1-0.2,0.2-0.3,0.3l0,0v0.1l-0.1,0.1l0,0l0,0v0.2l-0.1,0.1c-0.1,0.1-0.1,0.2-0.2,0.3c0,0.1-0.1,0.2-0.2,0.2h-0.1l0,0
	v0.2v0.1c0,0.1-0.1,0.1-0.2,0.2l-0.1,0.1c0,0.1-0.1,0.2-0.2,0.4c-0.1,0.1-0.3,0.3-0.4,0.4c-0.2,0.1-0.3,0.2-0.4,0.4
	c-0.1,0.1-0.3,0.2-0.4,0.4c-0.1,0.1-0.2,0.1-0.3,0.1c-0.1,0.1-0.2,0.2-0.4,0.2c-0.1,0-0.3,0.1-0.4,0.1c-0.1,0-0.1,0.1-0.2,0.1
	c-0.3,0-0.6-0.1-0.8-0.3c-0.2,0-0.3-0.1-0.4-0.2L45.2,15c-0.3-0.4-0.4-0.9-0.4-1.4c0-0.1,0-0.2,0-0.3c0,0,0-0.1,0-0.2
	c0,0,0-0.1-0.1-0.1l-0.1-0.1c0-0.1,0.1-0.1,0.2-0.2c-0.1-0.1-0.1-0.1-0.1-0.2c0-0.1,0-0.2,0.1-0.2c0.1-0.1,0.1-0.2,0.1-0.2
	s0.1,0,0.2,0.1l0,0l0,0l0,0l0,0c0-0.1,0-0.1-0.1-0.2c-0.1-0.1-0.1-0.1-0.1-0.2c0,0,0,0,0-0.1l0.2-0.8c0.1-0.2,0.2-0.4,0.4-0.6
	L45.6,10z"/>
<path id="Path_32561" class="st1" d="M56.3,11.1l0.2,0.1c0-0.1,0.1-0.2,0.2-0.3h0.1c0.1,0,0.2-0.1,0.3-0.3l0.2-0.1h0.1
	c0.1,0,0.1,0,0.1-0.1c0.1-0.1,0.2-0.2,0.3-0.3l0,0c0.1,0,0.1,0,0.2-0.1c0.1-0.1,0.2-0.1,0.2-0.1l0.4-0.1c0.1,0,0.1,0,0.2,0
	c0.1,0,0.2,0.1,0.5,0.4c0.2,0.2,0.4,0.5,0.4,0.8c0,0.1-0.1,0.3-0.2,0.3l0,0h-0.1v0.2l-0.2,0.4c0,0.1-0.1,0.2-0.2,0.2
	c-0.1,0.1-0.1,0.2-0.1,0.2h-0.2l-0.1,0.1v0.3c-0.1,0.2-0.2,0.4-0.3,0.6c-0.1,0.2-0.1,0.4-0.2,0.6c0,0.1,0,0.2,0.1,0.2
	c0,0,0.1,0,0.1-0.1c0.1,0,0.1-0.1,0.2-0.1c0.1,0,0.1-0.1,0.2-0.1c0.1-0.1,0.1-0.1,0.2-0.1c0.1,0,0.2-0.1,0.3-0.2
	c0.1-0.1,0.1-0.1,0.2-0.2c0.1,0,0.1-0.1,0.1-0.1c0-0.1,0.1-0.1,0.1-0.1c0.1,0,0.1,0,0.2,0c0-0.1,0-0.1,0-0.2l0.3-0.1l0.6-0.6
	l0.1-0.1c0.1,0,0.1,0,0.2-0.1c0-0.2,0.1-0.3,0.3-0.4c0,0,0,0,0.1-0.1s0.1-0.2,0.2-0.3c0.1-0.1,0.2-0.2,0.2-0.3l0.2-0.2
	c0.1,0,0.1-0.1,0.2-0.1c0.2-0.2,0.5-0.4,0.7-0.6c0.1-0.1,0.3-0.1,0.4-0.1c0.2,0,0.4,0.1,0.5,0.2c0.1,0.1,0.3,0.3,0.4,0.4
	c0.2,0.1,0.2,0.3,0.2,0.5c-0.1,0.4-0.2,0.8-0.5,1.2c-0.1,0.4-0.3,0.8-0.3,1.1c0,0.1,0,0.2-0.1,0.2s-0.1,0-0.1,0.1l0,0
	c0,0.2,0,0.3,0.1,0.3s0.1-0.1,0.2-0.1c0.1-0.1,0.3-0.2,0.5-0.2h0.1c0.1-0.2,0.2-0.4,0.4-0.5c0.1,0,0.2-0.1,0.2-0.2
	c0.1-0.1,0.2-0.2,0.3-0.2c0.1,0,0.1,0,0.2-0.1c0-0.2,0.1-0.4,0.4-0.6c0.1-0.1,0.3-0.2,0.5-0.3c0.1,0,0.1,0.1,0.2,0.2
	c0,0.1,0.1,0.2,0.1,0.2l0.1,0.1v0.2c0,0.1-0.1,0.2-0.1,0.2c0,0.1-0.1,0.2-0.2,0.3h-0.2L66.1,13l0,0c-0.1,0-0.2,0.1-0.3,0.3
	s-0.3,0.3-0.4,0.4v0.1c0,0-0.1,0.1-0.2,0.1L65,14.1L64.9,14c0,0,0,0-0.1,0.1s-0.2,0.2-0.3,0.2c-0.1,0.1-0.2,0.2-0.3,0.3L64,14.8
	h-0.2c0,0-0.1,0-0.1,0.1L63.6,15c-0.1,0.1-0.3,0.2-0.4,0.2c0,0-0.1,0-0.2-0.1c-0.1-0.1-0.1-0.1-0.2-0.2c-0.1-0.2-0.3-0.3-0.4-0.5
	c-0.1-0.1-0.2-0.3-0.3-0.4l0.1-0.4v-0.3c0-0.1,0-0.2,0.1-0.2c0-0.1,0.1-0.1,0.1-0.2v-0.4c0,0,0,0,0-0.1l0.2-0.2c0-0.1,0-0.2,0-0.2
	v-0.4c-0.1,0.1-0.3,0.2-0.3,0.4c-0.1,0.2-0.2,0.3-0.4,0.3c-0.1,0.2-0.2,0.4-0.3,0.4c0,0,0,0.1-0.1,0.1l-0.2,0.1h-0.2L61,13
	c-0.1,0.1-0.2,0.1-0.3,0.2c-0.1,0.1-0.1,0.2-0.2,0.2l-0.2,0.2h-0.2c0,0.2-0.2,0.4-0.3,0.5l-0.1,0.1h-0.2c0,0.2-0.1,0.3-0.3,0.4
	c-0.1,0-0.3,0.1-0.5,0.3s-0.4,0.3-0.4,0.3c-0.7,0-1.3-0.5-1.5-1.2c0-0.1-0.1-0.1-0.1-0.2c-0.1-0.1-0.1-0.2-0.1-0.4s0-0.4,0.1-0.6
	c0.1-0.2,0.2-0.4,0.3-0.6c0.1-0.3,0.2-0.4,0.3-0.4v-0.1c0.1-0.1,0.1-0.2,0.2-0.3l0,0l0,0c0,0-0.1,0-0.1,0.1l-0.2,0.1
	c-0.1,0-0.1,0-0.1,0.1s-0.1,0.1-0.2,0.1c-0.1,0-0.1,0.1-0.2,0.1l0,0l-0.1-0.1c0,0.1-0.1,0.2-0.1,0.2h-0.1c-0.2,0.2-0.3,0.2-0.3,0.2
	c-0.1,0-0.1,0-0.2-0.1c-0.1,0-0.2-0.1-0.2-0.2l0.1-0.4v-0.2c0,0,0,0,0.1-0.1s0.1-0.1,0.2-0.2C56,11.1,56.2,11.1,56.3,11.1z"/>
<path id="Path_32561_00000075157078210970839780000011760802258074008762_" class="st1" d="M124.1,13.8l-0.2-0.1
	c0,0.1-0.1,0.2-0.2,0.3h-0.1c-0.1,0-0.2,0.1-0.3,0.3l-0.2,0.1H123c-0.1,0-0.1,0-0.1,0.1c-0.1,0.1-0.2,0.2-0.3,0.3l0,0
	c-0.1,0-0.1,0-0.2,0.1s-0.2,0.1-0.2,0.1l-0.4,0.1c-0.1,0-0.1,0-0.2,0s-0.2-0.1-0.5-0.4c-0.2-0.2-0.4-0.5-0.4-0.8
	c0-0.1,0.1-0.3,0.2-0.3l0,0h0.1v-0.2l0.2-0.4c0-0.1,0.1-0.2,0.2-0.2c0.1-0.1,0.1-0.2,0.1-0.2h0.2l0.1-0.1v-0.3
	c0.1-0.2,0.2-0.4,0.3-0.6c0.1-0.2,0.1-0.4,0.2-0.6c0-0.1,0-0.2-0.1-0.2c0,0-0.1,0-0.1,0.1c-0.1,0-0.1,0.1-0.2,0.1s-0.1,0.1-0.2,0.1
	c-0.1,0.1-0.1,0.1-0.2,0.1s-0.2,0.1-0.3,0.2c-0.1,0.1-0.1,0.1-0.2,0.2c-0.1,0-0.1,0.1-0.1,0.1c0,0.1-0.1,0.1-0.1,0.1
	c-0.1,0-0.1,0-0.2,0c0,0.1,0,0.1,0,0.2l-0.3,0.1l-0.6,0.6l-0.1,0.1c-0.1,0-0.1,0-0.2,0.1c0,0.2-0.1,0.3-0.3,0.4c0,0,0,0-0.1,0.1
	s-0.1,0.2-0.2,0.3s-0.2,0.2-0.2,0.3l-0.2,0.2c-0.1,0-0.1,0.1-0.2,0.1c-0.2,0.2-0.5,0.4-0.7,0.6c-0.1,0.1-0.3,0.1-0.4,0.1
	c-0.2,0-0.4-0.1-0.5-0.2c-0.1-0.1-0.3-0.3-0.4-0.4c-0.2-0.1-0.2-0.3-0.2-0.5c0.1-0.4,0.2-0.8,0.5-1.2c0.1-0.4,0.3-0.8,0.3-1.1
	c0-0.1,0-0.2,0.1-0.2s0.1,0,0.1-0.1l0,0c0-0.2,0-0.3-0.1-0.3s-0.1,0.1-0.2,0.1c-0.1,0.1-0.3,0.2-0.5,0.2h-0.1
	c-0.1,0.2-0.2,0.4-0.4,0.5c-0.1,0-0.2,0.1-0.2,0.2c-0.1,0.1-0.2,0.2-0.3,0.2c-0.1,0-0.1,0-0.2,0.1c0,0.2-0.1,0.4-0.4,0.6
	c-0.1,0.1-0.3,0.2-0.5,0.3c-0.1,0-0.1-0.1-0.2-0.2c0-0.1-0.1-0.2-0.1-0.2l-0.1-0.1v-0.2c0-0.1,0.1-0.2,0.1-0.2
	c0-0.1,0.1-0.2,0.2-0.3h0.2l0.1-0.1l0,0c0.1,0,0.2-0.1,0.3-0.3s0.3-0.3,0.4-0.4v-0.1c0,0,0.1-0.1,0.2-0.1l0.2-0.2l0.1,0.1
	c0,0,0,0,0.1-0.1s0.2-0.2,0.3-0.2c0.1-0.1,0.2-0.2,0.3-0.3l0.2-0.2h0.2c0,0,0.1,0,0.1-0.1l0.2-0.2c0.1-0.1,0.3-0.2,0.4-0.2
	c0,0,0.1,0,0.2,0.1s0.1,0.1,0.2,0.2c0.1,0.2,0.3,0.3,0.4,0.5c0.1,0.1,0.2,0.3,0.3,0.4l-0.1,0.4v0.3c0,0.1,0,0.2-0.1,0.2
	c0,0.1-0.1,0.1-0.1,0.2v0.4c0,0,0,0,0,0.1l-0.2,0.2c0,0.1,0,0.2,0,0.2v0.4c0.1-0.1,0.3-0.2,0.3-0.4c0.1-0.2,0.2-0.3,0.4-0.3
	c0.1-0.2,0.2-0.4,0.3-0.4c0,0,0-0.1,0.1-0.1l0.2-0.1h0.2l0.1-0.3c0.1-0.1,0.2-0.1,0.3-0.2c0.1-0.1,0.1-0.2,0.2-0.2l0.2-0.2h0.2
	c0-0.2,0.2-0.4,0.3-0.5l0.1-0.1h0.2c0-0.2,0.1-0.3,0.3-0.4c0.1,0,0.3-0.1,0.5-0.3s0.4-0.3,0.4-0.3c0.7,0,1.3,0.5,1.5,1.2
	c0,0.1,0.1,0.1,0.1,0.2c0.1,0.1,0.1,0.2,0.1,0.4s0,0.4-0.1,0.6c-0.1,0.2-0.2,0.4-0.3,0.6c-0.1,0.3-0.2,0.4-0.3,0.4v0.1
	c-0.1,0.1-0.1,0.2-0.2,0.3l0,0l0,0c0,0,0.1,0,0.1-0.1l0.2-0.1c0.1,0,0.1,0,0.1-0.1s0.1-0.1,0.2-0.1s0.1-0.1,0.2-0.1l0,0l0.1,0.1
	c0-0.1,0.1-0.2,0.1-0.2h0.1c0.2-0.2,0.3-0.2,0.3-0.2c0.1,0,0.1,0,0.2,0.1c0.1,0,0.2,0.1,0.2,0.2l-0.1,0.4v0.2c0,0,0,0-0.1,0.1
	s-0.1,0.1-0.2,0.2C124.4,13.7,124.3,13.8,124.1,13.8z"/>
<path id="Path_32562" class="st1" d="M67.6,10.3l0.2-0.3c0-0.1,0.1-0.1,0.2-0.2c0.1-0.2,0.2-0.3,0.2-0.5s0.1-0.4,0.3-0.6
	c0.1-0.1,0.3-0.2,0.4-0.2c0.2,0,0.3,0.1,0.4,0.2c0.3,0.3,0.4,0.6,0.5,0.9c0.1,0.4,0.2,0.8,0.2,1.1c0,0.1,0,0.2,0.1,0.3
	c0,0.1,0.1,0.2,0.1,0.3s-0.1,0.1-0.1,0.2v0.4L70,12.4v0.3c-0.1,0.1-0.1,0.2-0.1,0.3v0.1c0.2-0.1,0.4-0.2,0.6-0.4
	c0.1-0.1,0.1-0.1,0.2-0.2c0.1-0.1,0.2-0.2,0.3-0.3l0.2-0.1c0.1-0.1,0.1-0.2,0.2-0.2c0-0.1,0.1-0.1,0.2-0.1s0.2-0.1,0.2-0.2
	c0.1-0.1,0.3-0.2,0.4-0.2l0.1-0.1c0.1-0.1,0.2-0.2,0.4-0.3c0.1,0,0.2-0.1,0.2-0.1s0.1,0.1,0.2,0.2c0.1,0.1,0.1,0.3,0.1,0.4
	c0,0.1-0.1,0.3-0.2,0.4c-0.1,0.1-0.2,0.2-0.3,0.3c-0.1,0.1-0.2,0.1-0.3,0.2c0,0-0.1,0.2-0.4,0.4l-0.2,0.1L71.7,13
	c0,0-0.1,0.1-0.3,0.1c0,0,0,0,0,0.1s-0.1,0.1-0.2,0.2c-0.1,0.1-0.3,0.3-0.4,0.4h-0.2c0,0.1-0.1,0.2-0.1,0.2c-0.2,0-0.3,0.1-0.3,0.2
	h-0.1l0,0c-0.1,0.1-0.3,0.2-0.5,0.2l-0.2,0.1l-0.1,0.1c0,0-0.1,0.1-0.3,0.1c-0.1,0-0.3,0.1-0.4,0.2L68.4,15c-0.2,0-0.3,0.1-0.4,0.2
	h-0.2c-0.2,0-0.3,0.1-0.5,0.2c-0.1,0.1-0.3,0.2-0.5,0.2c-0.3,0-0.6,0-0.9-0.2c-0.2-0.1-0.3-0.2-0.4-0.4c-0.1-0.1-0.2-0.3-0.3-0.4
	c-0.1-0.1-0.1-0.1-0.1-0.2c0-0.1,0-0.1,0.1-0.2c0.1-0.1,0.2-0.2,0.2-0.3c0.1-0.2,0.3-0.3,0.6-0.3c0.1,0,0.1,0,0.2-0.1
	c0.1,0,0.1-0.1,0.2-0.1s0.2,0.1,0.3,0.2l0,0h0.2c0,0,0.1,0.1,0.2,0.1c0.2,0,0.4-0.1,0.6-0.3l0,0h0.1c0,0,0.1-0.1,0.1-0.2l0.2-0.4
	l0.4-0.5v-0.1c0-0.1,0-0.1,0.1-0.2v-0.2c0-0.1,0-0.1,0.1-0.1s0.1-0.1,0.1-0.1v-0.1c0-0.1-0.1-0.1-0.1-0.2l0.1-0.2v-0.2v-0.1
	c0-0.1,0-0.1,0-0.2v-0.3c0,0,0-0.1-0.1-0.2s-0.1-0.2-0.1-0.2s-0.2,0.1-0.4,0.3c-0.2,0.1-0.3,0.3-0.4,0.5c-0.1,0.1-0.2,0.2-0.3,0.3
	c-0.1,0.1-0.2,0.1-0.3,0.3c0,0.1-0.1,0.1-0.2,0.2l-0.7,0.6l-0.8,0.6c-0.1,0.1-0.1,0.1-0.1,0.1c-0.3,0-0.4-0.1-0.4-0.4
	c0-0.2,0.1-0.3,0.2-0.5l0.1-0.1l0,0l0,0h0.1l0,0c0.2-0.1,0.3-0.2,0.5-0.3c0.1,0,0.2-0.1,0.2-0.2l0.5-0.3c0.2-0.1,0.4-0.3,0.5-0.5
	C67.3,10.6,67.5,10.5,67.6,10.3z"/>
<path id="Path_32563" class="st1" d="M74.5,5.7h0.2l0.1-0.1l0,0h0.1l0,0c0.2,0,0.3,0,0.5-0.1c0.1-0.1,0.2-0.1,0.3-0.1
	c0.1,0,0.1,0,0.2-0.1c0,0,0,0,0.1,0h0.2c0.1,0,0.1-0.1,0.2-0.3c0.1-0.2,0.2-0.3,0.3-0.4C76.8,4.3,77,4.2,77,4c0-0.1,0.1-0.1,0.1-0.2
	c0-0.1,0.1-0.1,0.1-0.1c0.1,0,0.2-0.1,0.3-0.2c0.2-0.3,0.4-0.4,0.5-0.4c0.2,0,0.3,0.2,0.4,0.5L78.5,4c0,0.1,0,0.1-0.1,0.2
	c0,0.1-0.1,0.2,0,0.3c0,0.1,0,0.1,0,0.2v0.1c0,0.1,0.1,0.1,0.2,0.1s0.2,0,0.2-0.1h0.1c0.1,0,0.1,0.1,0.2,0.1s0.2-0.1,0.3-0.1
	c0.1,0,0.2-0.1,0.4-0.1c0.1,0,0.2,0,0.3-0.1h0.1h0.1c0.1,0,0.1,0,0.2-0.1c0.2-0.1,0.3-0.1,0.5-0.1l0-0.1l0,0c0.2,0,0.4,0.1,0.4,0.3
	c0,0.1,0,0.2-0.1,0.2c-0.1,0.1-0.1,0.2-0.2,0.4l-0.5,0.6c-0.1,0.2-0.3,0.3-0.5,0.3c0,0-0.1-0.1-0.3-0.3l0,0c-0.1,0-0.2,0-0.2,0
	c-0.1,0-0.1,0-0.2,0c0,0-0.2,0.1-0.6,0.2h-0.3c-0.1,0-0.1,0-0.2,0l-0.6,0.1c-0.2,0.1-0.4,0.3-0.4,0.5c0,0,0,0-0.1,0.1l-0.5,0.9
	c-0.1,0-0.3,0.1-0.3,0.3V8c-0.1,0-0.2,0.1-0.2,0.1c-0.1,0.1-0.1,0.1-0.2,0.2l-0.2,0.3c-0.1,0.1-0.2,0.2-0.2,0.3
	c-0.1,0.1-0.1,0.2-0.2,0.4c0,0.1,0,0.2-0.1,0.2v0.1v0.1c-0.1,0.1-0.1,0.2-0.1,0.3v0.2c-0.1,0.5-0.2,0.7-0.2,0.7V11v0.1
	c0,0.2-0.1,0.4-0.2,0.6v0.2l-0.1,0.5c0,0.1,0,0.2,0.1,0.4v0.1c0,0.3,0.1,0.5,0.3,0.7c0.2,0.3,0.4,0.7,0.3,1.1c0,0.1,0,0.1,0,0.2
	c0,0.1,0,0.2,0,0.3s-0.1,0.2-0.2,0.3s-0.2,0.1-0.3,0.1c-0.4,0-0.7-0.3-0.9-0.8c-0.1-0.3-0.2-0.7-0.3-1.1v-0.4l-0.1-0.2l0.1-1v-0.2
	l0.2-0.9v-0.5c0-0.1,0.1-0.1,0.2-0.2l0,0c0,0-0.1,0-0.2,0.1s-0.2,0.2-0.3,0.2l-0.1,0.2h-0.1c-0.1,0.2-0.3,0.3-0.4,0.5
	c-0.2,0-0.3,0.1-0.4,0.3c-0.1,0.1-0.2,0.2-0.4,0.2l0,0c0,0.2-0.1,0.3-0.3,0.3l0,0c-0.1,0.2-0.2,0.4-0.3,0.4
	c-0.1,0.2-0.3,0.4-0.5,0.4c0,0.1-0.1,0.2-0.2,0.2s-0.1,0.1-0.2,0.1c0,0-0.1,0-0.1,0.1c-0.1,0-0.1-0.1-0.1-0.3c0-0.1,0-0.1,0.1-0.2
	l0.1-0.1c0,0,0-0.1-0.1-0.1c0-0.2,0.1-0.4,0.2-0.4c0.1-0.1,0.2-0.1,0.3-0.2c0-0.1,0.1-0.2,0.2-0.2s0.2-0.1,0.2-0.1s0.1-0.2,0.3-0.3
	c0.2-0.1,0.3-0.2,0.4-0.4c0.1-0.1,0.2-0.2,0.2-0.2l0,0c0-0.2,0.1-0.3,0.2-0.3l0.1-0.1v-0.1h0.1h0.1H73c0-0.2,0.1-0.3,0.3-0.4
	c0.3-0.3,0.6-0.5,0.9-0.8s0.5-0.6,0.7-0.9C75,8,75.1,7.8,75.2,7.7c0.1-0.2,0.2-0.4,0.2-0.6c0,0,0-0.1-0.1-0.1l-0.5,0.2
	c0,0-0.1-0.1-0.2-0.1c-0.1,0.1-0.2,0.1-0.2,0.2c-0.1,0.1-0.1,0.1-0.1,0.1h-0.2l-0.5,0.1c-0.3,0-0.7,0.1-1,0.3l-0.4,0.1h-0.1
	C72,7.9,71.9,8,71.8,8h-0.2c-0.2,0.1-0.3,0.2-0.5,0.2H71l-1.1,0.3c-0.2,0.1-0.4,0.3-0.6,0.4h-0.1c-0.1,0-0.2-0.1-0.3-0.2
	c-0.1-0.1-0.1-0.3-0.1-0.4c0-0.7,0.6-1.1,1.8-1.2L71,6.4l0,0h0.1l0,0c0.1,0,0.1,0,0.2-0.1c0.2-0.1,0.4-0.2,0.6-0.2L72.3,6h0.1
	c0.1,0,0.2,0,0.2-0.1c0.4,0.1,0.5,0,0.7,0c0.1,0,0.3,0,0.4-0.1h0.2c0.1,0,0.1,0,0.2-0.1S74.3,5.6,74.5,5.7
	C74.4,5.6,74.5,5.6,74.5,5.7z"/>
<path id="Path_32564" class="st1" d="M79.1,10.2h0.2l0-0.2c0.3-0.2,0.5-0.4,0.8-0.6l0.1-0.1c0.1,0,0.1-0.1,0.2-0.2
	c0.2-0.3,0.6-0.4,1-0.4C81.7,8.8,82,9,82,9.6l0.1,0.2c0.1,0.2,0.2,0.4,0.2,0.6c0.1,0.2,0.1,0.4,0.2,0.6c0,0.2-0.1,0.4-0.2,0.6
	c-0.3,0.2-0.5,0.5-0.7,0.8l-0.1,0.1c-0.1,0.1-0.1,0.3-0.2,0.4c-0.1,0-0.2,0.1-0.2,0.2v0.2v0.1C81,13.5,81,13.6,81,13.6l-0.1,0.1
	c0,0.1-0.1,0.1-0.1,0.2c0,0.1-0.1,0.2-0.1,0.2s-0.1,0.1-0.1,0.2c0,0.1,0.1,0.2,0.4,0.2c0.1,0,0.1,0,0.2-0.1h0.2c0,0,0.1,0,0.1-0.1
	c0.1-0.1,0.2-0.1,0.3-0.1c0.1,0,0.2-0.1,0.3-0.1c0.1-0.1,0.2-0.1,0.3-0.2c0.1,0,0.3-0.1,0.4-0.2c0.1-0.1,0.2-0.2,0.3-0.2
	c0.1,0,0.2-0.1,0.3-0.2c0.1-0.1,0.2-0.2,0.3-0.3c0.2-0.2,0.4-0.3,0.6-0.5c0.1-0.1,0.2-0.2,0.4-0.2c0.1-0.1,0.1-0.2,0.2-0.3
	c0.1-0.2,0.2-0.3,0.4-0.3c0.1,0,0.2,0.1,0.2,0.2c0,0.1,0,0.2-0.1,0.2v0.1v0.2v0.1c0,0,0,0.1-0.1,0.1c-0.1,0.1-0.1,0.1-0.1,0.2
	c0,0.1-0.1,0.2-0.2,0.2c0,0.2-0.1,0.2-0.2,0.3s-0.2,0.1-0.3,0.2c-0.2,0.2-0.3,0.3-0.5,0.4c-0.2,0.1-0.3,0.2-0.5,0.4
	c-0.1,0.1-0.1,0.1-0.2,0.1h-0.1h-0.1c0,0-0.1,0.1-0.1,0.2v0.1c0,0-0.1,0.1-0.2,0.1h-0.1l0,0c-0.1,0-0.1,0-0.1,0.1l0.1,0.1l0,0
	c0,0.1-0.1,0.2-0.2,0.2c-0.3,0.1-0.5,0.2-0.7,0.4l-0.3,0.1l-0.3,0.1c0,0-0.1-0.1-0.2-0.1l-0.2,0.1h-0.3c0,0-0.1-0.1-0.4-0.2
	c-0.2-0.1-0.4-0.2-0.5-0.4s-0.1-0.3-0.2-0.4c-0.1-0.1-0.1-0.2-0.1-0.3c0-0.3,0-0.5,0.1-0.7c0-0.1,0.1-0.2,0.1-0.3s0.1-0.2,0.1-0.2
	c0.1-0.1,0.1-0.3,0.2-0.4c0.1-0.3,0.3-0.5,0.4-0.8c0.1-0.1,0.1-0.2,0.2-0.3l0.1-0.2c0-0.1,0.1-0.1,0.1-0.2c0-0.1,0.1-0.2,0.1-0.2
	c0-0.1,0.1-0.1,0.1-0.2c0-0.2-0.1-0.3-0.3-0.3c0,0-0.1,0-0.1,0.1c-0.1,0.1-0.2,0.2-0.3,0.2c-0.1,0-0.2,0.1-0.3,0.2
	c-0.1,0.1-0.1,0.1-0.2,0.1c-0.1,0.1-0.2,0.1-0.3,0.3l-0.2,0.1C79,11.5,79,11.6,79,11.6s-0.2,0.1-0.4,0.1l-0.1,0.1
	c-0.1,0.1-0.2,0.1-0.2,0.1c-0.1,0.1-0.2,0.2-0.3,0.3c-0.1,0-0.2,0-0.2,0.1l-0.2,0.1c-0.1,0.1-0.1,0.1-0.2,0.2
	c-0.1,0.1-0.2,0.2-0.4,0.1c-0.1,0-0.2-0.1-0.2-0.3c0-0.3,0.1-0.6,0.4-0.8c0.2-0.2,0.3-0.3,0.5-0.3c0.1,0,0.2,0,0.2-0.1
	s0.1-0.1,0.2-0.2c0.1-0.1,0.3-0.2,0.4-0.3s0.3-0.3,0.5-0.3L79.1,10.2z"/>
<path id="Path_32565" class="st1" d="M92.8,12.6l0.2-0.2c0.1,0,0.2-0.1,0.2-0.1c0-0.1,0.1-0.2,0.2-0.2c0.2-0.1,0.3-0.2,0.4-0.4
	s0.2-0.3,0.4-0.3c0,0,0.1,0,0.2,0.1c0,0,0.1,0.1,0.1,0.2c0,0.3-0.1,0.5-0.2,0.7v0.3L94,13c-0.1,0-0.2,0.1-0.2,0.2
	c-0.1,0.1-0.2,0.2-0.3,0.2l-0.1,0.2c-0.1,0-0.3,0.1-0.3,0.2c0,0.1-0.1,0.2-0.2,0.2s-0.2,0.1-0.3,0.2c-0.1,0-0.2,0.1-0.3,0.1v0.1
	c-0.1,0.1-0.2,0.1-0.3,0.2c-0.1,0-0.2,0.1-0.3,0.1c0,0-0.1,0-0.2,0.1c-0.1,0-0.3,0-0.4-0.1s-0.2-0.1-0.4-0.1l-0.1-0.1
	c0-0.1-0.1-0.1-0.1-0.2c-0.1-0.1-0.1-0.2-0.1-0.3v-0.2c0,0,0-0.1-0.1-0.1c0,0,0-0.1-0.1-0.1c0,0,0,0,0-0.1c0,0,0,0,0-0.1v-0.1v-0.1
	l0.1-0.5v-0.1c0,0-0.1,0-0.2,0.1s-0.2,0.1-0.3,0.1c-0.1,0.1-0.1,0.2-0.1,0.3c-0.1,0.1-0.1,0.1-0.2,0.2v0.1c0,0.1-0.1,0.1-0.2,0.1
	s-0.1,0.1-0.2,0.1L89,13.7h-0.2c0,0.1-0.1,0.1-0.1,0.2c-0.1,0.1-0.1,0.2-0.2,0.3l-0.8,0.7c-0.1,0.1-0.2,0.2-0.4,0.2l0-0.1
	c-0.4,0.3-0.8,0.5-1.2,0.6c-0.2,0-0.5-0.1-0.7-0.2C85.1,15.3,85,15.2,85,15l-0.1-0.4c-0.1-0.1-0.1-0.3-0.1-0.4c0-0.1,0-0.1,0-0.2
	v-0.1v-0.4c0-0.1,0.1-0.1,0.2-0.1v-0.3c0.1-0.2,0.3-0.5,0.4-0.7l0.1-0.1c0-0.1,0.1-0.2,0.2-0.3s0.2-0.2,0.3-0.3
	c0.1-0.1,0.2-0.2,0.4-0.3l0.3-0.3c0.2-0.2,0.5-0.4,0.8-0.6c0.1-0.1,0.2-0.1,0.3-0.2c0.1-0.1,0.3-0.2,0.5-0.3s0.3-0.1,0.5-0.2
	c0.1-0.1,0.2-0.1,0.4-0.1h0.1c0.2-0.1,0.4-0.2,0.6-0.3H90c0.1,0,0.1,0,0.2,0.1l0,0l0.2-0.1h0.1c0.4,0,0.7,0.3,0.7,0.9
	c0,0.1,0.1,0.2,0.1,0.2s0.2-0.1,0.3-0.4c0.2-0.3,0.5-0.4,0.8-0.4s0.5,0.2,0.5,0.6c0,0.5-0.2,1-0.6,1.3c0,0.1-0.1,0.1-0.1,0.2
	L92,12.2l0,0c0,0.1,0,0.1-0.1,0.2c-0.1,0.1-0.1,0.1-0.1,0.2v0.3v0.3c0,0.1,0,0.2,0.1,0.3c0.2,0,0.4-0.1,0.5-0.3
	c0.1-0.1,0.1-0.2,0.2-0.2h0.1C92.6,12.8,92.7,12.7,92.8,12.6z M89.2,12.6c0-0.2,0.1-0.3,0.3-0.4c0.1-0.1,0.2-0.1,0.3-0.3
	c0.2-0.2,0.4-0.3,0.6-0.5c0.3-0.3,0.4-0.4,0.4-0.5l0,0l0,0L90.5,11h-0.2h-0.2H90h-0.1h-0.2c-0.1,0-0.2,0-0.3,0.1
	c-0.2,0.1-0.3,0.1-0.5,0.2c-0.2,0.1-0.4,0.2-0.6,0.3c-0.1,0.1-0.3,0.2-0.4,0.2c-0.1,0.2-0.3,0.3-0.5,0.5c-0.2,0.1-0.3,0.2-0.3,0.4
	c-0.2,0.2-0.3,0.2-0.3,0.3h-0.2c-0.1,0.1-0.1,0.1-0.2,0.1s-0.2,0.1-0.2,0.2c0,0.1-0.1,0.2-0.1,0.3C86,13.7,86,13.8,86,13.9
	c0,0.4,0.1,0.5,0.2,0.5s0.2-0.1,0.4-0.1c0.1,0,0.2-0.1,0.3-0.2c0.1,0,0.1-0.1,0.2-0.1l0.2-0.1c0,0,0.1,0,0.1-0.1c0,0,0.1,0,0.1-0.1
	c0.1-0.1,0.1-0.1,0.2-0.1s0.2-0.1,0.2-0.2c0.1-0.1,0.3-0.2,0.6-0.3l0.2-0.2c0.1,0,0.2-0.1,0.3-0.2C89,12.7,89.1,12.7,89.2,12.6
	L89.2,12.6z"/>
<path id="Path_32566" class="st1" d="M94.7,12.9L94.7,12.9c0-0.2,0-0.2,0-0.3s-0.1-0.2-0.1-0.3s0.1-0.2,0.1-0.3l0.1-0.3
	c0-0.1,0.1-0.1,0.1-0.2c0-0.1,0-0.1-0.1-0.2c0-0.1,0-0.3,0.1-0.4c0.1-0.1,0.2-0.3,0.2-0.5l0.2-0.7l0.4-0.9c0-0.1,0.1-0.1,0.1-0.2
	C96,8.6,96,8.5,96,8.4c0-0.1,0.1-0.2,0.2-0.3h0.1V8c0-0.1,0-0.1,0-0.2l0.4-0.6l0.2-0.5C97,6.6,97,6.5,97.1,6.5
	c0.1-0.2,0.2-0.4,0.4-0.5c0.1-0.2,0.1-0.3,0.2-0.4h0.2c0-0.1,0.1-0.2,0.1-0.2V5.2c0,0,0,0,0.1,0s0.1-0.2,0.2-0.4l0.3-0.3l0.1-0.2
	c0.1-0.1,0.1-0.2,0.2-0.3c0.1,0,0.2-0.1,0.3-0.2l0.2-0.2c0-0.1,0.1-0.3,0.3-0.5c0.1,0,0.2-0.1,0.3-0.2h0.2c0-0.2,0.1-0.4,0.3-0.5
	l0.1-0.1c0.1,0,0.1-0.1,0.2-0.1h0.1c0.1,0,0.2,0,0.3,0c0.3,0,0.5,0.1,0.7,0.3c0.2,0.2,0.3,0.4,0.3,0.7c0,0.1-0.1,0.2-0.2,0.3v0.1
	c-0.1,0.4-0.2,0.6-0.2,0.6s-0.1,0-0.1,0.1s0,0.3,0,0.4c-0.1,0-0.2,0.2-0.2,0.5c0,0.1-0.1,0.2-0.2,0.2c-0.1,0.1-0.2,0.3-0.2,0.4
	C101,6,101,6.1,100.9,6.1h-0.1v0.2c0,0.1-0.1,0.2-0.1,0.3c-0.1,0.1-0.2,0.2-0.2,0.3c0,0.2-0.1,0.3-0.3,0.4l-0.1,0.2
	c-0.1,0.1-0.1,0.2-0.2,0.2c-0.1,0.1-0.1,0.2-0.2,0.4l-0.3,0.5C99.2,9,99.1,9.1,99,9.1c0,0.2-0.1,0.3-0.1,0.5c0,0.1-0.1,0.1-0.2,0.1
	s-0.1,0.1-0.2,0.2c0,0.1-0.1,0.1-0.1,0.2l-0.2,0.4c-0.1,0.1-0.2,0.2-0.2,0.3c-0.1,0-0.2,0.1-0.2,0.3c0,0.1-0.1,0.1-0.1,0.2l-0.4,0.4
	C97.1,11.8,97,12,97,12.2c0,0.1-0.1,0.3-0.2,0.3l0,0c-0.2,0-0.4-0.1-0.5-0.2l0,0c0,0.1-0.1,0.2-0.2,0.3v0.3c0,0-0.1,0.3-0.2,0.7
	c0,0.1,0.1,0.1,0.1,0.2V14l0.1,0.3c0,0.2,0.1,0.4,0.3,0.4h0.3c0.1,0,0.2-0.1,0.3-0.2l0.4-0.2l0,0l0,0c0.1,0,0.1,0,0.2,0
	s0.1-0.1,0.1-0.2V14c0-0.1,0.1-0.1,0.2-0.1s0.1-0.1,0.2-0.1l0.1-0.1h0.1c0.1,0,0.2-0.1,0.2-0.4l0.1-0.1h0.1c0.1,0,0.1-0.1,0.2-0.2
	c0-0.1,0.1-0.2,0.1-0.3c0.1,0,0.2,0,0.3-0.1c0.2-0.4,0.4-0.6,0.5-0.6h0.1c0.1-0.1,0.2-0.2,0.2-0.3s0-0.1,0.1-0.2
	c0.1,0,0.1-0.1,0.2-0.1l0.1-0.1c0.1,0,0.2,0,0.2,0.1v0.3l0.1,0.3c0,0.1,0,0.1-0.1,0.2c-0.1,0.1-0.1,0.2-0.1,0.3c0,0.2,0,0.3-0.1,0.3
	s-0.1,0.1-0.2,0.1c-0.1,0.1-0.1,0.2-0.2,0.2c-0.1,0.1-0.2,0.2-0.2,0.3h-0.2l-0.1,0.1c0,0.2-0.1,0.3-0.3,0.4
	c-0.2,0.1-0.3,0.3-0.4,0.5l0,0h-0.2c0,0.1-0.1,0.2-0.2,0.2s-0.1,0.1-0.2,0.1c-0.1,0.1-0.1,0.1-0.2,0.2c-0.1,0-0.2,0.1-0.2,0.2
	c0,0.1-0.1,0.1-0.1,0.1c-0.1,0-0.1,0-0.2,0.1l-0.1,0.1c0,0-0.1,0-0.2,0l0,0c-0.1,0.1-0.2,0.1-0.3,0.1c-0.1,0-0.1,0-0.2,0
	s-0.1-0.1-0.2-0.1s-0.2-0.1-0.3-0.1c-0.1,0-0.2,0-0.2,0c-0.1,0-0.3-0.1-0.5-0.4c-0.2-0.2-0.3-0.4-0.3-0.7c0-0.1-0.1-0.1-0.1-0.2
	c-0.1-0.1-0.1-0.2-0.1-0.3v-0.1v-0.1v-0.2v-0.1c0.1,0,0.2,0,0.2,0L94.7,12.9z M96.9,10l0.2-0.1c0.1-0.2,0.2-0.3,0.3-0.4
	c0.2-0.2,0.3-0.2,0.3-0.2h0.1c0-0.1,0-0.1,0-0.2c0-0.1,0-0.1,0-0.2c0,0,0.1-0.2,0.3-0.4l0.1-0.2c0.1-0.2,0.3-0.4,0.5-0.5
	c0.1-0.2,0.2-0.3,0.2-0.3H99c0-0.1,0.1-0.2,0.2-0.3V7.1V7c0-0.1,0.1-0.1,0.1-0.2c0.1-0.1,0.2-0.2,0.2-0.3c0-0.1,0.1-0.2,0.2-0.2
	c0.1-0.1,0.1-0.2,0.2-0.3h0.2c0-0.1,0-0.1,0-0.2V5.7c0-0.1,0.2-0.3,0.4-0.7l0.2-0.4c0-0.1,0-0.1,0.1-0.2c0.1-0.1,0.1-0.2,0.1-0.3
	l0.1-0.4c0-0.2,0-0.2-0.1-0.2s-0.1,0.1-0.2,0.1s-0.1,0.2-0.2,0.4c-0.2,0.1-0.3,0.2-0.4,0.3c0,0.2-0.1,0.3-0.3,0.4l-0.1,0.1
	c0,0.1-0.1,0.2-0.2,0.2c-0.1,0.1-0.3,0.3-0.3,0.4c-0.4,0.5-0.6,0.8-0.6,0.8l-0.1,0.1h-0.2c0,0.1,0,0.1,0,0.2c0,0,0,0.1-0.1,0.1
	l-0.1,0.1c0,0.1-0.1,0.1-0.1,0.2c0,0.4,0,0.5,0,0.7c0,0.1-0.1,0.2-0.1,0.3h-0.2c-0.1,0-0.2,0.1-0.2,0.1v0.2c0,0,0,0.1-0.1,0.1
	c-0.1,0.1-0.1,0.1-0.1,0.2C97.2,8.7,97.1,8.9,97,9c-0.1,0.2-0.3,0.5-0.3,0.7s-0.1,0.4-0.2,0.5c0,0,0,0,0.1,0
	C96.7,10.3,96.8,10.2,96.9,10L96.9,10z"/>
<path id="Path_32567" class="st1" d="M99,11.7l0.2-0.2h0.1c0.1,0,0.1-0.1,0.2-0.2h0.1c0.1-0.2,0.2-0.3,0.4-0.4l0.2-0.1l0.1-0.1
	c0.1-0.1,0.2-0.1,0.3-0.2c0.1-0.1,0.2-0.2,0.3-0.2c0.1,0,0.1,0,0.2,0c0.1-0.1,0.2-0.2,0.3-0.3c0.1-0.1,0.2-0.2,0.3-0.3l0.1-0.1
	c0.1-0.1,0.2-0.1,0.3-0.2c0.1-0.1,0.2-0.1,0.4-0.1c0.3,0,0.5,0.1,0.7,0.3c0.2,0.1,0.3,0.4,0.3,0.6l-0.2,0.8c-0.1,0.6-0.3,0.9-0.4,1
	v0.2c-0.1,0.1-0.2,0.1-0.2,0.2l0.1,0.3c0,0,0,0.1-0.1,0.2c0,0,0,0,0,0.1v0.4c0,0.1-0.1,0.1-0.2,0.2c0,0,0,0,0.1,0
	c0.1-0.1,0.2-0.1,0.3-0.1h0.2l0.2-0.2c0.1,0,0.1-0.1,0.2-0.1c0.1-0.1,0.3-0.2,0.5-0.2l1.4-1.1c0.2-0.2,0.3-0.3,0.4-0.3
	s0.2,0.1,0.2,0.2c0,0.1,0,0.3-0.1,0.4c-0.1,0.1-0.1,0.2-0.2,0.4c0,0.1-0.1,0.2-0.2,0.3s-0.1,0.1-0.2,0.2c-0.1,0.1-0.2,0.2-0.4,0.3
	c-0.2,0.1-0.3,0.2-0.5,0.4c-0.1,0.1-0.2,0.2-0.3,0.3l-0.5,0.3l-0.1,0.1c-0.1,0-0.1,0.1-0.2,0.1s-0.2,0.1-0.3,0.2l-0.2,0.1
	c-0.1,0-0.1,0.1-0.2,0.1s-0.2,0.1-0.3,0.1c-0.1,0.1-0.1,0.1-0.2,0.1h-0.2l-0.2,0.1c-0.2,0-0.3-0.1-0.4-0.2c-0.2-0.1-0.3-0.3-0.3-0.5
	v-0.1v-0.2c0-0.1,0-0.2-0.1-0.2c0-0.1,0-0.1-0.1-0.2v-0.2v-0.1c0-0.1,0-0.2,0-0.4c0-0.1,0.1-0.1,0.1-0.2c0-0.1,0-0.2,0-0.2l0.1-0.3
	c0-0.1,0.1-0.1,0.1-0.2c0-0.1,0-0.2,0.1-0.3v-0.2l0.1-0.2c0.1-0.1,0.1-0.1,0.1-0.2c0-0.1,0.1-0.2,0.1-0.3s0.1-0.1,0.1-0.2
	c0-0.1,0-0.1-0.1-0.1l0,0c-0.1,0-0.2,0.1-0.3,0.2l-0.2-0.1c0,0-0.1,0-0.1,0.1c0,0,0,0-0.1,0.1c-0.1,0-0.1,0.1-0.2,0.2h-0.1l-0.1-0.1
	l0,0c-0.1,0-0.1,0.1-0.1,0.2c-0.1,0.1-0.2,0.2-0.3,0.2L99.8,12c-0.1,0-0.1,0.1-0.2,0.2c0,0.1-0.1,0.2-0.2,0.3s-0.1,0.1-0.2,0.1
	c-0.2,0-0.3-0.1-0.3-0.3L99,11.7L99,11.7z M103.7,6.3l-0.1-0.4V5.8c0-0.3,0.1-0.5,0.3-0.6c0.2,0,0.3-0.1,0.5-0.1
	c0.2,0.1,0.3,0.2,0.4,0.3c0.1,0.1,0.2,0.3,0.2,0.5V6c0,0.1,0,0.2,0,0.3c0,0.1-0.1,0.3-0.2,0.4s-0.3,0.2-0.4,0.2s-0.3-0.1-0.4-0.2
	C103.8,6.6,103.7,6.4,103.7,6.3L103.7,6.3z"/>
<path id="Path_32568" class="st1" d="M113.5,12.6l0.2-0.2c0.1,0,0.2-0.1,0.2-0.1c0-0.1,0.1-0.2,0.2-0.2c0.2-0.1,0.3-0.2,0.4-0.4
	s0.2-0.3,0.4-0.3c0,0,0.1,0,0.2,0.1c0,0,0.1,0.1,0.1,0.2c0,0.3-0.1,0.5-0.2,0.7v0.3l-0.1,0.1c-0.1,0-0.2,0.1-0.2,0.2
	c-0.1,0.1-0.2,0.2-0.3,0.2l-0.1,0.2c-0.1,0-0.3,0.1-0.3,0.2c0,0.1-0.1,0.2-0.2,0.2s-0.2,0.1-0.3,0.2c-0.1,0-0.2,0.1-0.3,0.1v0.1
	c-0.1,0.1-0.2,0.1-0.3,0.2c-0.1,0-0.2,0.1-0.3,0.1c0,0-0.1,0-0.2,0.1c-0.1,0-0.3,0-0.4-0.1s-0.2-0.1-0.4-0.1l-0.1-0.1
	c0-0.1-0.1-0.1-0.1-0.2c-0.1-0.1-0.1-0.2-0.1-0.3v-0.2c0,0,0-0.1-0.1-0.1c0,0,0-0.1-0.1-0.1c0,0,0,0,0-0.1c0,0,0,0,0-0.1v-0.1V13
	l0.1-0.5v-0.1c0,0-0.1,0-0.2,0.1s-0.2,0.1-0.3,0.1c-0.1,0.1-0.1,0.2-0.1,0.3c-0.1,0.1-0.1,0.1-0.2,0.2v0.1c0,0.1-0.1,0.1-0.2,0.1
	s-0.1,0.1-0.2,0.1l-0.1,0.1h-0.2c0,0.1-0.1,0.1-0.1,0.2c-0.1,0.1-0.1,0.2-0.2,0.3l-0.8,0.7c-0.1,0.1-0.2,0.2-0.4,0.2l-0.1,0.1
	c-0.4,0.3-0.8,0.5-1.2,0.6c-0.2,0-0.5-0.1-0.7-0.2c-0.3-0.1-0.4-0.2-0.4-0.4l-0.1-0.4c-0.1-0.1-0.1-0.3-0.1-0.4c0-0.1,0-0.1,0-0.2
	v-0.1v-0.4c0-0.1,0.1-0.1,0.2-0.1v-0.3c0-0.1,0.1-0.2,0.2-0.3s0.2-0.2,0.3-0.3l0.1-0.1c0-0.1,0.1-0.2,0.2-0.3s0.2-0.2,0.3-0.3
	c0.1-0.1,0.2-0.2,0.4-0.3l0.3-0.3c0.2-0.2,0.5-0.4,0.8-0.6c0.1-0.1,0.2-0.1,0.3-0.2c0.1-0.1,0.3-0.2,0.5-0.3s0.3-0.1,0.5-0.2
	c0.1-0.1,0.2-0.1,0.4-0.1h0.1c0.2-0.1,0.4-0.2,0.6-0.3h0.1c0.1,0,0.1,0,0.2,0.1l0,0l0.2-0.1h0.1c0.4,0,0.7,0.3,0.7,0.9
	c0,0.1,0.1,0.2,0.1,0.2c0.1,0,0.2-0.1,0.3-0.4c0.2-0.3,0.5-0.4,0.8-0.4s0.5,0.2,0.5,0.6c0,0.5-0.2,1-0.6,1.3c0,0.1-0.1,0.1-0.1,0.2
	l-0.2,0.4l0,0c0,0.1,0,0.1-0.1,0.2c-0.1,0.1-0.1,0.1-0.1,0.2V13v0.3c0,0.1,0,0.2,0.1,0.3c0.2,0,0.4-0.1,0.5-0.3
	c0.1-0.1,0.1-0.2,0.2-0.2h0.1C113.3,12.8,113.4,12.7,113.5,12.6z M109.9,12.6c0-0.2,0.1-0.3,0.3-0.4c0.1-0.1,0.2-0.1,0.3-0.3
	c0.2-0.2,0.4-0.3,0.6-0.5c0.3-0.3,0.4-0.4,0.4-0.5l0,0l0,0l-0.1,0.1h-0.2H111l-0.2-0.1h-0.1h-0.2c-0.1,0-0.2,0-0.3,0.1
	c-0.2,0.1-0.3,0.1-0.5,0.2c-0.2,0.1-0.4,0.2-0.6,0.3c-0.1,0.1-0.3,0.2-0.4,0.2c-0.1,0.2-0.3,0.3-0.5,0.5c-0.2,0.1-0.3,0.2-0.3,0.4
	c-0.2,0.2-0.3,0.2-0.3,0.3l-0.1,0.2c-0.1,0.1-0.1,0.1-0.2,0.1s-0.2,0.1-0.2,0.2c0,0.1-0.1,0.2-0.1,0.3c-0.1,0.1-0.1,0.1-0.1,0.2
	c0,0.4,0.1,0.5,0.2,0.5s0.2-0.1,0.4-0.1c0.1,0,0.2-0.1,0.3-0.2c0.1,0,0.1-0.1,0.2-0.1l0.2-0.1c0,0,0.1,0,0.1-0.1c0,0,0.1,0,0.1-0.1
	c0.1-0.1,0.1-0.1,0.2-0.1s0.2-0.1,0.2-0.2c0.1-0.1,0.3-0.2,0.6-0.3l0.2-0.2C109.7,12.9,109.8,12.8,109.9,12.6
	C109.7,12.7,109.8,12.7,109.9,12.6z"/>
<g id="Group_9702" transform="translate(-68.444 -70.662)">
	<path id="Path_32569" class="st2" d="M106,112.1c-0.1,0-0.2,0-0.3,0h-0.1c-3.3,0-6.7-0.1-10-0.1c-5.2-0.1-10.3-0.1-15.5-0.2
		c-0.7,0.1-1.4-0.4-1.6-1.1c-0.7-2-0.9-4.2-0.4-6.3c0.1-0.7,0.6-1.3,1.2-1.7c-0.1,0-0.1,0-0.1-0.1c-0.5-0.2-0.9-0.7-0.7-1.3
		c0.1-0.4,0.5-0.7,0.9-0.7c1.9-0.7,3.8-1.4,5.7-2.2c0.5-0.2,0.9-0.4,1.4-0.5c1-0.4,2-0.8,3.1-1.1c1-0.2,1.6-1.1,1.5-2.1
		c0-1.3,0-2.7,0-4v-0.9c-1.1,0.5-2.2,1.1-3.3,1.6c-2.2,1.1-4.4,2.2-6.6,3.4h-0.1c-0.3,0.2-0.6,0.3-0.9,0.3c-0.4,0-0.7-0.2-0.9-0.5
		c-0.2-0.4-0.3-0.8-0.2-1.2c0.1-0.3,0.3-0.6,0.7-0.8l0,0v-0.1c-0.3-1.4-0.5-2.8-0.6-4.2c-0.1-0.9,0.4-1.8,1.3-2.3
		c1.4-0.9,2.8-1.8,4.1-2.6c0.5-0.3,1.1-0.7,1.6-1c0.3-0.4,0.7-0.7,1.2-0.9c0.1-0.1,0.3-0.2,0.4-0.3c0.6-0.4,1.3-0.8,1.9-1.2
		c0.8-0.5,1.6-1,2.4-1.5c0.5-0.4,1.1-0.6,1.8-0.6c0.6,0,1.2,0.2,1.6,0.6c0.3,0.2,0.6,0.4,0.9,0.6l0,0l0,0c0.2,0.2,0.5,0.4,0.8,0.5
		c0.6,0.3,1,0.7,1.4,1.1l1.5,1c1.6,1,3.2,2,4.8,3.1h0.1c0.4,0.2,0.7,0.5,0.8,0.9c0.1,0.3,0,0.6-0.2,0.8c-0.2,0.4-0.7,0.7-1.1,0.7
		c-0.3,0-0.7-0.1-1-0.3c-3.2-2.1-6.5-4.2-9.4-6L94,80.8c0,0.1,0,0.1,0,0.2c0,0.2,0,0.4,0,0.6c-0.1,0.9-0.1,1.8,0,2.7
		c0.1,1.2,0.8,2.3,1.9,2.9c2.2,1.1,4.3,2.2,6.5,3.3c0.9,0.5,1.8,1,2.8,1.4c0.5,0.2,1,0.6,1,1.1s-0.4,0.9-0.9,1.2
		c-0.1,0-0.1,0.1-0.2,0.1c1.6,2.1,1.9,4.9,0.8,7.3l0,0c1,0.3,1,1.1,0.9,1.3c-0.1,0.6-0.6,1-1.4,1h-0.1c-0.3,0-0.6-0.1-0.8-0.2
		c-0.1,0-0.1,0-0.2-0.1c-2-0.7-3.9-1.4-5.9-2.1l-3.5-1.3c-0.2-0.1-0.4-0.1-0.6-0.1c-0.1,0-0.4,0-0.4,0.7c-0.1,1.7-0.1,3.2-0.1,4.6
		c0,0.5,0.1,1.1,0.3,1.5c0.2,0.5,0.6,0.8,1.1,0.9c3.2,0.6,6.4,1.3,9.6,2l1.4,0.3h0.1c0.5,0,1,0.4,1,1c0,0.1,0,0.1,0,0.2
		C107,111.7,106.6,112.1,106,112.1C106.1,112.1,106.1,112.1,106,112.1z"/>
	<path id="Path_32570" class="st3" d="M93.6,78.2c0.5,0,1,0.2,1.4,0.5c0.3,0.2,0.6,0.4,0.9,0.6c0.7,0.6,1.6,0.8,2.2,1.6
		c2.1,1.4,4.3,2.7,6.4,4.1c0.4,0.3,0.9,0.5,0.5,1.1c-0.2,0.3-0.4,0.4-0.8,0.5c-0.2,0-0.5-0.1-0.7-0.2c-3.1-2-6.3-4-9.4-6
		c-0.2-0.1-0.4-0.3-0.6-0.3c-0.1,0-0.1,0-0.2,0.1c-0.2,0.1-0.1,0.5-0.1,0.7c-0.1,1.2-0.1,2.3,0,3.5c0.1,1.4,0.9,2.6,2.2,3.3
		c3.1,1.6,6.1,3.2,9.2,4.8c1,0.5,1,0.8,0.1,1.4c-0.2,0.1-0.5,0.3-0.7,0.4c1.8,2,2.2,4.8,1.1,7.2c-0.2,0.3-0.4,0.6,0.2,0.7
		c0.4,0.1,0.8,0.3,0.7,0.8s-0.5,0.6-1,0.7h-0.1c-0.3,0-0.6-0.1-0.8-0.2c-3.1-1.1-6.3-2.3-9.4-3.4c-0.2-0.1-0.5-0.1-0.7-0.2
		c-0.6,0-0.9,0.4-0.9,1.2c0,1.5-0.1,3.1-0.1,4.6c0,0.6,0.1,1.2,0.4,1.8c0.3,0.6,0.8,1,1.4,1.1c3.6,0.7,7.3,1.5,10.9,2.3
		c0.3,0.1,0.7,0.1,0.7,0.6c0,0.4-0.2,0.5-0.4,0.5c-0.1,0-0.3,0-0.4,0c-8.5-0.1-17-0.2-25.5-0.3c-0.5,0.1-1-0.3-1.1-0.8
		c-0.7-1.9-0.8-4-0.4-6c0.1-0.8,0.7-1.4,1.4-1.6c0.2-0.1,0.4-0.2,0.6-0.3c-0.4-0.1-0.8-0.3-1.2-0.5c-0.2-0.1-0.5-0.3-0.5-0.6
		c0-0.3,0.3-0.5,0.6-0.6c1.9-0.7,3.8-1.4,5.7-2.2c1.5-0.6,2.9-1.2,4.4-1.7c1.2-0.3,1.9-1.3,1.9-2.5c0-1.7,0-3.4,0-5.1
		c0-0.3-0.1-0.4-0.2-0.4c-0.2,0-0.3,0.1-0.4,0.2c-1.1,0.5-2.2,1.1-3.3,1.6c-2.2,1.1-4.4,2.2-6.6,3.4c-0.2,0.2-0.5,0.2-0.8,0.3
		c-0.2,0-0.4-0.1-0.5-0.3c-0.3-0.4-0.3-0.9,0.1-1.2c0.1-0.1,0.1-0.1,0.2-0.1c0.3-0.2,0.2-0.4,0.1-0.7c-0.3-1.3-0.5-2.7-0.6-4.1
		c-0.1-0.8,0.3-1.5,1-1.9c2-1.2,3.9-2.5,5.8-3.7c0.5-0.5,1-0.9,1.6-1.1c1.4-0.9,2.9-1.8,4.3-2.8C92.5,78.4,93.1,78.2,93.6,78.2
		 M93.6,77.2L93.6,77.2c-0.7,0-1.4,0.3-2,0.7c-0.8,0.5-1.6,1-2.4,1.5c-0.6,0.4-1.3,0.8-1.9,1.2c-0.1,0.1-0.3,0.2-0.4,0.2
		c-0.5,0.3-0.9,0.6-1.3,1c-0.5,0.3-1,0.7-1.5,1c-1.3,0.9-2.7,1.8-4.1,2.6c-1,0.5-1.5,1.6-1.5,2.7c0,1.4,0.2,2.8,0.5,4.1
		c-0.3,0.2-0.5,0.5-0.6,0.9c-0.1,0.6,0,1.1,0.3,1.6s0.8,0.7,1.3,0.7c0.4,0,0.8-0.1,1.1-0.3h0.1c2.2-1.1,4.4-2.2,6.6-3.4
		c0.8-0.4,1.6-0.8,2.6-1.3v0.1c0,1.3,0,2.7,0,4c0.1,0.8-0.5,1.5-1.2,1.6c-1.1,0.3-2.1,0.8-3.1,1.1c-0.5,0.2-0.9,0.4-1.4,0.5
		c-1.9,0.7-3.8,1.4-5.7,2.2c-0.7,0.2-1.2,0.7-1.2,1.4c0,0.5,0.2,0.9,0.5,1.2c-0.4,0.4-0.7,1-0.8,1.5c-0.5,2.2-0.3,4.4,0.4,6.5
		c0.3,0.9,1.1,1.5,2,1.4c5.2,0.1,10.4,0.1,15.5,0.2c3.3,0,6.7,0.1,10,0.1c0,0,0,0,0.1,0s0.2,0,0.3,0c0.7,0,1.4-0.6,1.4-1.3
		c0.1-0.8-0.4-1.5-1.2-1.6c-0.1,0-0.1,0-0.2,0h-0.1l-1.4-0.3c-3.1-0.6-6.3-1.3-9.5-2c-0.3-0.1-0.6-0.3-0.8-0.6
		c-0.2-0.4-0.3-0.9-0.2-1.3c0-1.4,0.1-2.9,0.1-4.6c0-0.1,0-0.2,0-0.3c0.1,0,0.2,0,0.3,0.1l3.5,1.3c2,0.7,3.9,1.4,5.9,2.1
		c0.1,0,0.1,0,0.2,0.1c0.3,0.1,0.7,0.2,1,0.2c0.1,0,0.1,0,0.2,0c0.9,0,1.6-0.6,1.8-1.4c0.2-0.7-0.1-1.3-0.7-1.6
		c0.9-2.3,0.6-4.9-0.7-7c0.5-0.3,0.9-0.8,0.9-1.4c0-0.8-0.8-1.2-1.3-1.5c-0.9-0.5-1.8-1-2.8-1.4c-2.1-1.1-4.3-2.3-6.5-3.3
		c-1-0.5-1.6-1.5-1.7-2.5c-0.1-0.9-0.1-1.7,0-2.6c2.8,1.8,5.8,3.7,8.8,5.7c0.4,0.2,0.8,0.4,1.2,0.4c0.6,0,1.2-0.3,1.5-0.9
		c0.3-0.3,0.4-0.8,0.3-1.2c-0.2-0.5-0.5-1-1-1.2h-0.1c-1.6-1-3.2-2-4.8-3l-1.5-1c-0.4-0.5-1-0.9-1.5-1.2c-0.3-0.1-0.5-0.3-0.7-0.5
		l0,0h-0.1c-0.3-0.2-0.6-0.4-0.9-0.6C95,77.5,94.3,77.3,93.6,77.2L93.6,77.2z"/>
</g>
</svg>
