<svg xmlns="http://www.w3.org/2000/svg" xmlns:xlink="http://www.w3.org/1999/xlink" width="71" height="42" viewBox="0 0 71 42">
  <defs>
    <clipPath id="clip-logo_10">
      <rect width="71" height="42"/>
    </clipPath>
  </defs>
  <g id="logo_10" data-name="logo 10" clip-path="url(#clip-logo_10)">
    <g id="Visionise-logo-V1-01" transform="translate(-0.9 11.077)">
      <path id="Path" d="M80.942,23.6c-.161.121-.524.242-1.935.242H75.1c-1.411,0-1.774-.121-1.935-.242A.4.4,0,0,1,73,23.4v1.169h8.144V23.4l-.2.2" transform="translate(-43.032 -13.369)" fill="#fff"/>
      <path id="Shape" d="M76.236,1a3.211,3.211,0,0,1,2.258.968,4.327,4.327,0,0,1,.887,2.983,4.347,4.347,0,0,1-.887,2.943A3.233,3.233,0,0,1,76.438,8.9,5.153,5.153,0,0,0,79.26,7.854a3.513,3.513,0,0,0,1.33-2.822,3.635,3.635,0,0,0-1.29-2.9A4.875,4.875,0,0,0,76.236,1M75.228,1a4.575,4.575,0,0,0-2.741,1.089A3.741,3.741,0,0,0,71.2,4.951a3.5,3.5,0,0,0,1.33,2.9A5.153,5.153,0,0,0,75.349,8.9a2.888,2.888,0,0,1-2.056-1.008,4.353,4.353,0,0,1-.887-2.943,4.1,4.1,0,0,1,.927-2.943A3.134,3.134,0,0,1,75.228,1" transform="translate(-41.954 0)" fill="#fff"/>
      <path id="Path_1_" d="M5.7,11.381h.04l.443-1.008L2.956,2.955a3.068,3.068,0,0,1-.4-1.209A.8.8,0,0,1,2.835,1.1H.9c.04,0,.081.04.121.04a2.816,2.816,0,0,1,.766,1.169c.121.363.242.6.282.766Z" transform="translate(0 -0.06)" fill="#fff"/>
      <path id="Path_2_" d="M28.5,11.26h2.379c-.081-.04-.121-.081-.2-.121a1.022,1.022,0,0,1-.4-.726,11.878,11.878,0,0,1-.04-1.693v-5.2a8.332,8.332,0,0,1,.081-1.734.841.841,0,0,1,.443-.645l.04-.04H28.54l.081.04a.941.941,0,0,1,.4.685A11.908,11.908,0,0,1,29.1,3.519V8.76a12.479,12.479,0,0,1-.081,1.734.941.941,0,0,1-.4.685c0,.04-.04.081-.121.081" transform="translate(-16.473 -0.06)" fill="#fff"/>
      <path id="Path_3_" d="M41.809,1.4a2.513,2.513,0,0,0-.484.363A2.345,2.345,0,0,0,40.6,3.5a2.909,2.909,0,0,0,.323,1.29,3.046,3.046,0,0,0,.927.968,11.763,11.763,0,0,0,1.895.927A6.589,6.589,0,0,1,45.8,7.891a2.005,2.005,0,0,1,.6,1.532,2.193,2.193,0,0,1-.685,1.613,2.3,2.3,0,0,1-.645.443,2.725,2.725,0,0,0,1.975-2.7,2.942,2.942,0,0,0-.363-1.411,2.554,2.554,0,0,0-.927-.927,17.91,17.91,0,0,0-1.975-.968,7.08,7.08,0,0,1-2.056-1.209,2.046,2.046,0,0,1-.564-1.411,2.121,2.121,0,0,1,.484-1.29c.081-.04.121-.121.161-.161" transform="translate(-23.695 -0.239)" fill="#fff"/>
      <path id="Path_4_" d="M61.5,11.26h2.379a.556.556,0,0,1-.161-.121,1.022,1.022,0,0,1-.4-.726c-.04-.564-.081-1.129-.081-1.693v-5.2a8.333,8.333,0,0,1,.081-1.734A.888.888,0,0,1,63.8,1.14l.04-.04H61.621l.081.04a.941.941,0,0,1,.4.685,11.908,11.908,0,0,1,.081,1.693V8.76a12.48,12.48,0,0,1-.081,1.734.941.941,0,0,1-.4.685c-.081.04-.121.081-.2.081" transform="translate(-36.169 -0.06)" fill="#fff"/>
      <path id="Path_5_" d="M100.6,1.1l7.257,10.361V9.768L101.85,1.1Z" transform="translate(-59.505 -0.06)" fill="#fff"/>
      <path id="Path_6_" d="M125.2,11.2h2.379a.537.537,0,0,1-.2-.121,1.022,1.022,0,0,1-.4-.726c-.04-.564-.081-1.129-.081-1.693V3.419a8.332,8.332,0,0,1,.081-1.734.841.841,0,0,1,.443-.645l.04-.04H125.2l.081.04a.989.989,0,0,1,.443.685,11.907,11.907,0,0,1,.081,1.693V8.66a12.478,12.478,0,0,1-.081,1.734.989.989,0,0,1-.443.685c.04.081-.04.121-.081.121" transform="translate(-74.187)" fill="#fff"/>
      <path id="Path_7_" d="M138.309,1.4a2.514,2.514,0,0,0-.484.363A2.345,2.345,0,0,0,137.1,3.5a2.5,2.5,0,0,0,.363,1.29,3.046,3.046,0,0,0,.927.968,11.763,11.763,0,0,0,1.895.927,6.589,6.589,0,0,1,2.056,1.209,2.005,2.005,0,0,1,.6,1.532,2.193,2.193,0,0,1-.685,1.613,2.125,2.125,0,0,1-.6.443,2.725,2.725,0,0,0,1.976-2.7,2.942,2.942,0,0,0-.363-1.411,2.282,2.282,0,0,0-.927-.927,17.912,17.912,0,0,0-1.975-.968,7.08,7.08,0,0,1-2.056-1.209,1.952,1.952,0,0,1-.645-1.451,2.121,2.121,0,0,1,.484-1.29c.04,0,.081-.081.161-.121" transform="translate(-81.29 -0.239)" fill="#fff"/>
      <path id="Path_8_" d="M158,11.26h2.459a.845.845,0,0,1-.443-.323c-.121-.2-.282-.6-.282-2.379V1.1h-1.653l.121.04a1.022,1.022,0,0,1,.4.726,11.351,11.351,0,0,1,.081,1.653V8.76a11.909,11.909,0,0,1-.081,1.693,1.271,1.271,0,0,1-.363.685c-.081.04-.161.121-.242.121" transform="translate(-93.764 -0.06)" fill="#fff"/>
      <path id="Path_9_" d="M21.6,2.592V2.027a.929.929,0,0,0-.443-.806L21,1.1h1.855l-.161.121a.708.708,0,0,0-.2.161,2.511,2.511,0,0,0-.564.726Z" transform="translate(-11.996 -0.06)" fill="#fff"/>
      <path id="Path_10_" d="M53.2,2.685a4.344,4.344,0,0,1,.484.968V2a2.285,2.285,0,0,1-.323.524Z" transform="translate(-31.215 -0.597)" fill="#fff"/>
      <path id="Path_11_" d="M53.406,3.519A4.245,4.245,0,0,0,52.6,2.148,3.468,3.468,0,0,0,53.406,1.1Z" transform="translate(-30.857 -0.06)" fill="#fff"/>
      <path id="Path_12_" d="M149.706,3.519a4.246,4.246,0,0,0-.806-1.371,3.469,3.469,0,0,0,.806-1.048Z" transform="translate(-88.332 -0.06)" fill="#fff"/>
      <path id="Path_13_" d="M40.2,21.525V18.3a8.4,8.4,0,0,0,.968,1.895,3.43,3.43,0,0,0-.968,1.33" transform="translate(-23.456 -10.325)" fill="#fff"/>
      <path id="Path_14_" d="M97.9,24.808H100a.81.81,0,0,1-.323-.161,1.2,1.2,0,0,1-.645-.685c0-.04-.04-.121-.04-.161a.363.363,0,0,1-.04.2,1.186,1.186,0,0,1-.6.645c-.121.04-.282.121-.443.161" transform="translate(-57.893 -13.608)" fill="#fff"/>
      <path id="Path_15_" d="M99.9,23.734H97.2a3.994,3.994,0,0,0,.685-.443A1.87,1.87,0,0,0,98.571,22a2.615,2.615,0,0,0,.645,1.29,3.289,3.289,0,0,0,.685.443" transform="translate(-57.476 -12.534)" fill="#fff"/>
      <path id="Path_16_" d="M116.511,2.732a2.2,2.2,0,0,0-.242-.726A2.91,2.91,0,0,0,115.1,1.2H118s-.927.363-1.169.806a2.864,2.864,0,0,0-.323.726" transform="translate(-68.159 -0.119)" fill="#fff"/>
      <path id="Path_17_" d="M136.9,19.3v2.5a2.865,2.865,0,0,1,.323-.726l.161-.242.04-.081A5.649,5.649,0,0,1,136.9,19.3" transform="translate(-81.17 -10.922)" fill="#fff"/>
      <path id="Shape_1_" d="M136.5,21.525V18.3a5.615,5.615,0,0,0,.887,1.855l-.484.6c-.161.282-.282.524-.4.766m.282-1.855v.847l.081-.081.161-.242c-.081-.161-.161-.363-.242-.524" transform="translate(-80.932 -10.325)" fill="#fff"/>
      <path id="Path_18_" d="M167.9,12a1.746,1.746,0,0,1,.2.04.91.91,0,0,1,.564.524.148.148,0,0,1,.04.121V11.4a.846.846,0,0,1-.524.524A.583.583,0,0,1,167.9,12" transform="translate(-99.672 -6.207)" fill="#fff"/>
      <path id="Path_19_" d="M168.29,12.537a2.571,2.571,0,0,0-.323-.564,1.763,1.763,0,0,0-.968-.524,1.9,1.9,0,0,0,.6-.242,1.652,1.652,0,0,0,.685-.806Z" transform="translate(-99.135 -5.61)" fill="#fff"/>
      <path id="Path_20_" d="M171.277,3.116a7.755,7.755,0,0,0-.726-1.25A2.558,2.558,0,0,0,169.1,1.1h1.975Z" transform="translate(-100.389 -0.06)" fill="#fff"/>
      <path id="Path_21_" d="M171.685,22.122H168.5a5.23,5.23,0,0,0,1.371-.323,3.075,3.075,0,0,0,1.29-1.089,4.689,4.689,0,0,0,.726-1.411Z" transform="translate(-100.03 -10.922)" fill="#fff"/>
      <path id="Path_26_" d="M3.095,35.3l-.04.6H2.813l-.04-.282v-.04c-.04,0-.081-.04-.121,0H1.8v.887h.847v.242H1.8v.847a.148.148,0,0,0,.04.121h.081l.282.04v.2H1.2v-.2l.2-.04.081-.04a.141.141,0,0,1,.04-.081V35.7l-.04-.081-.081-.04-.2-.04v-.2Z" transform="translate(-0.179 -20.472)" fill="#fff"/>
      <path id="Shape_4_" d="M7.893,39.092v.2H7.369l-.04-.282a2.236,2.236,0,0,1-.323.242.759.759,0,0,1-.323.081.563.563,0,0,1-.363-.121.546.546,0,0,1,0-.685.724.724,0,0,1,.363-.161l.6-.081v-.242a.308.308,0,0,0-.081-.2.747.747,0,0,0-.282-.081.6.6,0,0,0-.363.081l-.04.282H6.281l-.04-.4a2.283,2.283,0,0,1,.726-.121.813.813,0,0,1,.443.121.481.481,0,0,1,.2.363v1.008l.081.04Zm-1.33-.081a.308.308,0,0,0,.2.081.573.573,0,0,0,.242-.081,1.707,1.707,0,0,0,.282-.2v-.363l-.524.081a.308.308,0,0,0-.2.081.366.366,0,0,0,0,.4Z" transform="translate(-3.163 -21.844)" fill="#fff"/>
      <path id="Path_27_" d="M11.04,38.49h.2l.04.282a1.177,1.177,0,0,0,.363.081.384.384,0,0,0,.282-.081.222.222,0,0,0,.121-.2.306.306,0,0,0-.081-.161c-.081-.04-.121-.081-.2-.121l-.282-.121a1.634,1.634,0,0,1-.363-.2A.436.436,0,0,1,11,37.684a.423.423,0,0,1,.2-.363,1.073,1.073,0,0,1,.484-.121,3.112,3.112,0,0,1,.6.081l-.04.443h-.2l-.04-.2a1.116,1.116,0,0,0-.363-.04c-.2,0-.323.081-.323.242a.209.209,0,0,0,.081.161l.242.121.242.081a1.634,1.634,0,0,1,.363.2.366.366,0,0,1,.121.282.583.583,0,0,1-.081.282,1.069,1.069,0,0,1-.242.2,1.177,1.177,0,0,1-.363.081,1.116,1.116,0,0,1-.363-.04c-.121-.04-.2-.04-.323-.081Z" transform="translate(-6.028 -21.606)" fill="#fff"/>
      <path id="Path_28_" d="M17.156,37.361v.2h-.6V36.434a.432.432,0,0,0-.081-.242.384.384,0,0,0-.282-.081.583.583,0,0,0-.282.081.486.486,0,0,0-.2.2v.968l.081.04.2.04v.2H15.1v-.2l.2-.04.081-.04V34.982c-.04,0-.04-.04-.081-.04l-.2-.04v-.2h.6v1.33a.8.8,0,0,1,.645-.282.606.606,0,0,1,.443.161.438.438,0,0,1,.161.363V37.28l.081.04Z" transform="translate(-8.475 -20.114)" fill="#fff"/>
      <path id="Shape_5_" d="M20.9,37.779l.2-.04.081-.04v-1.25H21.1l-.2-.04v-.2h.6V37.7l.081.04.2.04v.2H20.9Zm.2-2.016a.343.343,0,1,1,.161.04c-.04.04-.121,0-.161-.04Z" transform="translate(-11.937 -20.531)" fill="#fff"/>
      <path id="Shape_6_" d="M23.842,39.032a.889.889,0,0,1-.242-.6.958.958,0,0,1,.121-.484.825.825,0,0,1,.323-.323,1.073,1.073,0,0,1,.484-.121.821.821,0,0,1,.6.242.626.626,0,0,1,.2.564,1.032,1.032,0,0,1-.443.847,1.074,1.074,0,0,1-.484.121.871.871,0,0,1-.564-.242Zm1.129-.161a1.073,1.073,0,0,0,.121-.484.7.7,0,0,0-.161-.484.48.48,0,0,0-.443-.161.393.393,0,0,0-.363.161,1.073,1.073,0,0,0-.121.484.643.643,0,0,0,.161.484.606.606,0,0,0,.443.161.438.438,0,0,0,.363-.161Z" transform="translate(-13.548 -21.785)" fill="#fff"/>
      <path id="Path_29_" d="M31,38.972v.2h-.6V38.045a.287.287,0,0,0-.121-.242.384.384,0,0,0-.282-.081.583.583,0,0,0-.282.081.486.486,0,0,0-.2.2v.968l.081.04.2.04v.2H28.9v-.2l.2-.04c.04,0,.081,0,.081-.04v-1.25l-.081-.081h-.2v-.2h.564l.04.282c.081-.081.2-.161.282-.242a1.177,1.177,0,0,1,.363-.081.606.606,0,0,1,.443.161.438.438,0,0,1,.161.363v1.008c.04,0,.04.04.081.04Z" transform="translate(-16.712 -21.725)" fill="#fff"/>
      <path id="Shape_7_" d="M39.216,35.463a1.276,1.276,0,0,1,.282.927,1.732,1.732,0,0,1-.282,1.008,1.1,1.1,0,0,1-.887.363H37.2v-.2l.2-.04.081-.04c0-.04.04-.081.04-.121V35.5a.148.148,0,0,0-.04-.121l-.081-.04-.2-.04v-.2h1.129A1.736,1.736,0,0,1,39.216,35.463Zm-.282,1.814a1.641,1.641,0,0,0,0-1.613.738.738,0,0,0-.685-.242H37.8v2.1h.443A.706.706,0,0,0,38.934,37.277Z" transform="translate(-21.665 -20.352)" fill="#fff"/>
      <path id="Shape_8_" d="M45.192,38.865l.04.161-.363.121a1.371,1.371,0,0,1-.4.04.963.963,0,0,1-.564-.2,1.086,1.086,0,0,1-.2-.6,1.055,1.055,0,0,1,.2-.685.915.915,0,0,1,1.089-.161.467.467,0,0,1,.2.282,2.023,2.023,0,0,1,.081.484l-1.25.081a.606.606,0,0,0,.161.443.518.518,0,0,0,.4.161c.2-.04.443-.081.6-.121ZM44.264,37.7a.315.315,0,0,0-.161.161c-.04.121-.04.2-.081.323l.927-.081a.76.76,0,0,0-.081-.323.493.493,0,0,0-.363-.121A.267.267,0,0,0,44.264,37.7Z" transform="translate(-25.545 -21.738)" fill="#fff"/>
      <path id="Path_30_" d="M48.281,38.49h.2l.04.282a1.177,1.177,0,0,0,.363.081.3.3,0,0,0,.242-.081.222.222,0,0,0,.121-.2.306.306,0,0,0-.081-.161c-.081-.04-.121-.081-.2-.121l-.282-.121a1.634,1.634,0,0,1-.363-.2.436.436,0,0,1-.121-.282.423.423,0,0,1,.2-.363,1.073,1.073,0,0,1,.484-.121,3.112,3.112,0,0,1,.6.081l-.04.443h-.2v-.2a1.116,1.116,0,0,0-.363-.04c-.2,0-.323.081-.323.242a.209.209,0,0,0,.081.161l.242.121.242.081a1.057,1.057,0,0,1,.363.2.366.366,0,0,1,.121.282.583.583,0,0,1-.081.282,1.069,1.069,0,0,1-.242.2,1.177,1.177,0,0,1-.363.081,1.116,1.116,0,0,1-.363-.04c-.121-.04-.2-.04-.323-.081Z" transform="translate(-28.231 -21.606)" fill="#fff"/>
      <path id="Shape_9_" d="M52.4,37.779l.2-.04.081-.04v-1.25H52.6l-.2-.04v-.2H53V37.7l.081.04.2.04v.2H52.44v-.2Zm.242-2.016a.343.343,0,1,1,.161.04c-.04.04-.121,0-.161-.04Z" transform="translate(-30.737 -20.531)" fill="#fff"/>
      <path id="Shape_10_" d="M56.774,37.4a.748.748,0,0,1-.282.081.716.716,0,0,1,.161.4.65.65,0,0,1-.121.363.542.542,0,0,1-.282.242,1.432,1.432,0,0,1-.4.081h-.121l-.121.2a.087.087,0,0,0,.081.081c.161.04.282.04.4.081l.282.04a.366.366,0,0,1,.282.121.194.194,0,0,1,.081.242.536.536,0,0,1-.121.323,2.236,2.236,0,0,1-.323.242,2.024,2.024,0,0,1-.484.081,1.963,1.963,0,0,1-.484-.04A.81.81,0,0,1,55,39.78l.081-.443h.2v.282a.573.573,0,0,0,.242.081,1.116,1.116,0,0,0,.363.04.542.542,0,0,0,.363-.081.244.244,0,0,0,.121-.242.148.148,0,0,0-.04-.121.242.242,0,0,0-.161-.04h-.121l-.484-.121a.573.573,0,0,1-.242-.081.308.308,0,0,1-.081-.2l.2-.323a.878.878,0,0,1-.323-.2A.65.65,0,0,1,55,37.966a.749.749,0,0,1,.363-.6,1.449,1.449,0,0,1,.443-.081h.524a1.177,1.177,0,0,0,.363-.081v.2Zm-.564.847a.362.362,0,0,0,.081-.363.458.458,0,0,0-.121-.323.65.65,0,0,0-.363-.121.458.458,0,0,0-.323.121.411.411,0,0,0-.081.363.458.458,0,0,0,.121.323.563.563,0,0,0,.363.121.643.643,0,0,0,.323-.121Z" transform="translate(-32.289 -21.606)" fill="#fff"/>
      <path id="Path_31_" d="M62.1,38.972v.2h-.6V38.045a.432.432,0,0,0-.081-.242.384.384,0,0,0-.282-.081.583.583,0,0,0-.282.081.486.486,0,0,0-.2.2v.968l.081.04.2.04v.2H60v-.2l.2-.04.081-.04v-1.25l-.121-.081H60v-.2h.524l.04.282c.081-.081.2-.161.282-.242a1.177,1.177,0,0,1,.363-.081.606.606,0,0,1,.443.161.438.438,0,0,1,.161.363v1.008c.04,0,.04.04.081.04Z" transform="translate(-35.273 -21.725)" fill="#fff"/>
      <path id="Shape_11_" d="M70.479,37.638l-.04.242-.081.04h-.121a.583.583,0,0,1-.282-.081,2.828,2.828,0,0,1-.363-.242,1.1,1.1,0,0,1-.766.323.963.963,0,0,1-.363-.081c-.121-.04-.2-.161-.282-.242a.949.949,0,0,1-.081-.323.919.919,0,0,1,.121-.443,1.54,1.54,0,0,1,.363-.363.963.963,0,0,1-.2-.564.606.606,0,0,1,.161-.443.775.775,0,0,1,.484-.161,1.116,1.116,0,0,1,.363.04l.363.121-.081.443H69.39l.04-.323c-.04-.04-.121-.04-.161-.081-.081,0-.161-.04-.242-.04a.432.432,0,0,0-.242.081.3.3,0,0,0-.081.242.744.744,0,0,0,.2.484,5.77,5.77,0,0,0,.443.6,2.433,2.433,0,0,0,.323.323,2.862,2.862,0,0,0,.4-.564l.2.121a5.768,5.768,0,0,1-.443.6,1.075,1.075,0,0,0,.564.282c0,.04.04.04.081,0Zm-1.048-.2a6.2,6.2,0,0,1-.685-.766.581.581,0,0,0-.323.524.492.492,0,0,0,.161.363.65.65,0,0,0,.363.121.917.917,0,0,0,.484-.242Z" transform="translate(-40.108 -20.472)" fill="#fff"/>
      <path id="Path_32_" d="M80.125,37.619v.2H79.2v-.2l.2-.04.121-.04v-.081L79.4,35.845v-.282l-.081.282-.685,1.975h-.282l-.726-1.975-.081-.282v.282l-.081,1.613.04.081.081.04.2.04v.2H76.9v-.2l.2-.04c.04,0,.081,0,.081-.04a.141.141,0,0,1,.04-.081l.121-1.895-.04-.081-.081-.04-.2-.04v-.2h.726l.685,1.935.081.242.04-.242L79.2,35.2h.766v.2l-.2.04c-.04,0-.081,0-.081.04l-.04.081.161,1.895.04.081c.04,0,.04.04.081.04Z" transform="translate(-45.36 -20.412)" fill="#fff"/>
      <path id="Shape_12_" d="M87.189,39.092v.2h-.564l-.04-.282a2.236,2.236,0,0,1-.323.242.759.759,0,0,1-.323.081.563.563,0,0,1-.363-.121.464.464,0,0,1,0-.685.724.724,0,0,1,.363-.161l.6-.081v-.242a.308.308,0,0,0-.081-.2.747.747,0,0,0-.282-.081.6.6,0,0,0-.363.081l-.04.282h-.2l-.04-.4a2.283,2.283,0,0,1,.726-.121.813.813,0,0,1,.443.121.481.481,0,0,1,.2.363v1.008a.141.141,0,0,0,.081.04Zm-1.33-.081a.308.308,0,0,0,.2.081.573.573,0,0,0,.242-.081,1.706,1.706,0,0,0,.282-.2v-.363l-.524.081a.285.285,0,0,0-.2.484Z" transform="translate(-50.448 -21.844)" fill="#fff"/>
      <path id="Path_33_" d="M92.537,38.972v.2h-.6V38.045a.432.432,0,0,0-.081-.242.384.384,0,0,0-.282-.081.583.583,0,0,0-.282.081.486.486,0,0,0-.2.2v.968l.081.04.2.04v.2h-.887v-.2l.2-.04c.04,0,.081,0,.081-.04v-1.25l-.161-.081h-.2v-.2h.564l.04.282c.081-.081.2-.161.282-.242a1.177,1.177,0,0,1,.363-.081.606.606,0,0,1,.443.161.438.438,0,0,1,.161.363v1.008l.081.04Z" transform="translate(-53.417 -21.725)" fill="#fff"/>
      <path id="Path_34_" d="M98.156,38.972v.2h-.524l-.04-.282a1,1,0,0,1-.645.323.813.813,0,0,1-.443-.121.438.438,0,0,1-.161-.363V37.682l-.04-.04-.2-.04v-.2h.564v1.129c0,.242.121.323.363.323a.654.654,0,0,0,.564-.282V37.6l-.081.04-.2-.04v-.2h.6v1.492l.081.04Z" transform="translate(-56.819 -21.725)" fill="#fff"/>
      <path id="Path_35_" d="M102.485,35.082a.308.308,0,0,0-.081.2v.564l.484-.04v.242H102.4v1.33l.081.04.282.04v.2H101.8V37.5l.2-.04.081-.04V36.09H101.8v-.161l.282-.04v-.363a.619.619,0,0,1,.2-.524.849.849,0,0,1,.524-.2,1.177,1.177,0,0,1,.363.081l-.121.282a1.177,1.177,0,0,0-.363-.081A.133.133,0,0,0,102.485,35.082Z" transform="translate(-60.221 -20.173)" fill="#fff"/>
      <path id="Shape_13_" d="M106.689,39.092v.2h-.564l-.04-.282a2.236,2.236,0,0,1-.323.242.759.759,0,0,1-.323.081.563.563,0,0,1-.363-.121.464.464,0,0,1,0-.685.724.724,0,0,1,.363-.161l.6-.081v-.242a.308.308,0,0,0-.081-.2.747.747,0,0,0-.282-.081.6.6,0,0,0-.363.081l-.04.282h-.2l-.04-.4a2.283,2.283,0,0,1,.726-.121.813.813,0,0,1,.443.121.481.481,0,0,1,.2.363v1.008a.141.141,0,0,0,.081.04Zm-1.33-.081a.308.308,0,0,0,.2.081.573.573,0,0,0,.242-.081,1.707,1.707,0,0,0,.282-.2v-.363l-.524.081a.285.285,0,0,0-.2.484Z" transform="translate(-62.086 -21.844)" fill="#fff"/>
      <path id="Path_36_" d="M110.086,38.972a.7.7,0,0,1-.2-.6,1.241,1.241,0,0,1,.121-.524.825.825,0,0,1,.323-.323.813.813,0,0,1,.443-.121.786.786,0,0,1,.323.04c.081.04.161.04.242.081l-.04.443h-.2l-.04-.282a1.177,1.177,0,0,0-.363-.081.438.438,0,0,0-.363.161,1.074,1.074,0,0,0-.121.484.7.7,0,0,0,.161.484.438.438,0,0,0,.363.161.787.787,0,0,0,.282-.04.949.949,0,0,0,.323-.081l.04.2a1.9,1.9,0,0,1-.685.161.58.58,0,0,1-.6-.161Z" transform="translate(-65.04 -21.725)" fill="#fff"/>
      <path id="Path_37_" d="M115.25,38.395l-.04.2a.3.3,0,0,1-.2.04h-.282a.563.563,0,0,1-.363-.121.778.778,0,0,1-.121-.4V37.1H114v-.161l.282-.04v-.323l.323-.081v.363l.524-.04v.242H114.6v.887a.511.511,0,0,0,.04.242.129.129,0,0,0,.121.121.511.511,0,0,0,.242.04C115.048,38.435,115.169,38.395,115.25,38.395Z" transform="translate(-67.503 -21.188)" fill="#fff"/>
      <path id="Path_38_" d="M119.5,38.972v.2h-.524l-.04-.282a1,1,0,0,1-.645.323.813.813,0,0,1-.443-.121.438.438,0,0,1-.161-.363V37.682a.141.141,0,0,0-.081-.04l-.2-.04v-.2h.6v1.129c0,.242.121.323.363.323a.654.654,0,0,0,.564-.282V37.6l-.081.04-.2-.04v-.2h.6v1.492l.081.04Z" transform="translate(-69.532 -21.725)" fill="#fff"/>
      <path id="Path_39_" d="M124.592,37.321l-.04.443h-.2l-.04-.242c-.04,0-.081-.04-.161-.04a.366.366,0,0,0-.282.121.512.512,0,0,0-.161.282v.847l.081.04.282.04v.2H123.1v-.161l.2-.04.081-.04v-1.25l-.081-.04-.2-.04v-.2h.524l.04.363a1.754,1.754,0,0,1,.242-.282.65.65,0,0,1,.363-.121,1.659,1.659,0,0,0,.323.121Z" transform="translate(-72.934 -21.606)" fill="#fff"/>
      <path id="Shape_14_" d="M127.24,37.779l.2-.04c.04,0,.081,0,.081-.04s.04-.081,0-.121V36.408a.141.141,0,0,0-.081-.04l-.2-.04v-.2h.564v1.492l.081.04.2.04v.2H127.2Zm.2-2.016c-.04-.04-.04-.081-.04-.161a.232.232,0,1,1,.2.2c-.04.04-.081,0-.161-.04Z" transform="translate(-75.381 -20.531)" fill="#fff"/>
      <path id="Path_40_" d="M132.356,39.032v.2h-.6V38.1a.432.432,0,0,0-.081-.242.384.384,0,0,0-.282-.081.583.583,0,0,0-.282.081.486.486,0,0,0-.2.2v.968l.081.04.2.04v.2H130.3v-.2l.2-.04.081-.04v-1.25l-.081-.04h-.2v-.2h.564l.04.282a.542.542,0,0,1,.282-.242,1.177,1.177,0,0,1,.363-.081.606.606,0,0,1,.443.161.438.438,0,0,1,.161.363v1.008l.081.04Z" transform="translate(-77.231 -21.785)" fill="#fff"/>
      <path id="Shape_15_" d="M137.474,37.521a.747.747,0,0,1-.282.081.716.716,0,0,1,.161.4.65.65,0,0,1-.121.363.542.542,0,0,1-.282.242,1.433,1.433,0,0,1-.4.081h-.121l-.121.2a.087.087,0,0,0,.081.081c.161.04.282.04.4.081l.282.04a.366.366,0,0,1,.282.121c.081.04.081.161.081.242a.536.536,0,0,1-.121.323,2.236,2.236,0,0,1-.323.242,2.024,2.024,0,0,1-.484.081,1.963,1.963,0,0,1-.484-.04.81.81,0,0,1-.323-.161l.081-.443h.2v.282a.573.573,0,0,0,.242.081,1.116,1.116,0,0,0,.363.04.542.542,0,0,0,.363-.081.244.244,0,0,0,.121-.242.148.148,0,0,0-.04-.121.242.242,0,0,0-.161-.04h-.121l-.524-.081a.28.28,0,0,1-.282-.242l.2-.323a.878.878,0,0,1-.323-.2.65.65,0,0,1-.121-.363,1.177,1.177,0,0,1,.081-.363.542.542,0,0,1,.282-.242,1.449,1.449,0,0,1,.443-.081h.524a1.177,1.177,0,0,0,.363-.081Zm-.564.847A.362.362,0,0,0,136.99,38a.458.458,0,0,0-.121-.323.65.65,0,0,0-.363-.121.458.458,0,0,0-.323.121.6.6,0,0,0-.081.363.458.458,0,0,0,.121.323.563.563,0,0,0,.363.121.287.287,0,0,0,.323-.121Z" transform="translate(-80.454 -21.725)" fill="#fff"/>
      <path id="Path_41_" d="M143.1,37.879l.04-.564h.242l.04.4a.806.806,0,0,0,.524.081.686.686,0,0,0,.282-.04.4.4,0,0,0,.2-.161.573.573,0,0,0,.081-.242c0-.081,0-.121-.04-.161s-.081-.121-.121-.121a1.965,1.965,0,0,0-.282-.121l-.4-.161a.836.836,0,0,1-.4-.242.724.724,0,0,1-.161-.363.65.65,0,0,1,.121-.363.542.542,0,0,1,.282-.242.868.868,0,0,1,.443-.081,1.372,1.372,0,0,1,.4.04,1.177,1.177,0,0,1,.363.081l-.04.564h-.242l-.04-.323a2.024,2.024,0,0,0-.484-.081,1.177,1.177,0,0,0-.363.081.366.366,0,0,0-.121.282.583.583,0,0,0,.081.282,1.634,1.634,0,0,0,.363.2l.323.121a.811.811,0,0,1,.323.161.486.486,0,0,1,.2.2.759.759,0,0,1,.081.323.563.563,0,0,1-.121.363.878.878,0,0,1-.363.282.694.694,0,0,1-.484.081C143.624,38.08,143.342,38,143.1,37.879Z" transform="translate(-84.871 -20.591)" fill="#fff"/>
      <path id="Shape_16_" d="M149.732,38.8l.04.161-.363.121a1.372,1.372,0,0,1-.4.04.713.713,0,0,1-.806-.806,1.643,1.643,0,0,1,.2-.726.915.915,0,0,1,1.089-.161.467.467,0,0,1,.2.282.993.993,0,0,1,.04.484l-1.209.081a.606.606,0,0,0,.161.443.518.518,0,0,0,.4.161A3.133,3.133,0,0,0,149.732,38.8Zm-.968-1.169a.315.315,0,0,0-.161.161c-.04.121-.04.2-.081.323l.927-.081a.416.416,0,0,0-.444-.443.267.267,0,0,0-.242.04Z" transform="translate(-87.915 -21.679)" fill="#fff"/>
      <path id="Path_42_" d="M154.292,37.321l-.04.443h-.2l-.04-.242c-.04,0-.081-.04-.161-.04a.366.366,0,0,0-.282.121.512.512,0,0,0-.161.282v.847l.081.04.282.04v.2H152.8v-.161l.2-.04.081-.04v-1.25l-.081-.04-.2-.04v-.2h.564l.04.363a1.754,1.754,0,0,1,.242-.282.65.65,0,0,1,.363-.121A1.464,1.464,0,0,0,154.292,37.321Z" transform="translate(-90.66 -21.606)" fill="#fff"/>
      <path id="Path_43_" d="M158.616,37.44v.2l-.161.04c-.04,0-.081.04-.121.081l-.564,1.411h-.323l-.6-1.451-.04-.081h-.04l-.161-.04v-.2h.847v.2l-.2.04c-.04,0-.081,0-.081.04l.04.081.363.887.081.242.081-.242.323-.887.04-.081c0-.04-.04-.04-.081-.04h-.161v-.2Z" transform="translate(-92.928 -21.725)" fill="#fff"/>
      <path id="Shape_17_" d="M161.9,37.779l.2-.04.081-.04v-1.25l-.081-.04-.2-.04v-.2h.6v1.492l.081.04.2.04v.2H161.9Zm.242-2.016c-.04-.04-.04-.081-.04-.161a.232.232,0,1,1,.2.2c-.081.04-.121,0-.161-.04Z" transform="translate(-96.091 -20.531)" fill="#fff"/>
      <path id="Path_44_" d="M164.886,38.972a.7.7,0,0,1-.2-.6,1.242,1.242,0,0,1,.121-.524.825.825,0,0,1,.323-.323.813.813,0,0,1,.443-.121,1.116,1.116,0,0,1,.363.04c.081.04.161.04.242.081l-.04.443h-.2l-.04-.282a1.177,1.177,0,0,0-.363-.081.438.438,0,0,0-.363.161,1.074,1.074,0,0,0-.121.484.7.7,0,0,0,.161.484.438.438,0,0,0,.363.161.787.787,0,0,0,.282-.04.949.949,0,0,0,.323-.081l.04.2a1.9,1.9,0,0,1-.685.161.606.606,0,0,1-.645-.161Z" transform="translate(-97.747 -21.725)" fill="#fff"/>
      <path id="Shape_18_" d="M170.432,38.732l.04.161-.363.121a1.372,1.372,0,0,1-.4.04.889.889,0,0,1-.6-.242,1.086,1.086,0,0,1-.2-.6,1.509,1.509,0,0,1,.2-.726.8.8,0,0,1,.645-.282.813.813,0,0,1,.443.121.466.466,0,0,1,.2.282,2.022,2.022,0,0,1,.081.484l-1.209.081a.606.606,0,0,0,.161.443.518.518,0,0,0,.4.161A1.431,1.431,0,0,0,170.432,38.732Zm-.927-1.169a.315.315,0,0,0-.161.161c-.04.121-.04.2-.081.323l.927-.081a.458.458,0,0,0-.121-.323.493.493,0,0,0-.363-.121C169.666,37.482,169.585,37.523,169.5,37.563Z" transform="translate(-100.269 -21.606)" fill="#fff"/>
      <path id="Path_45_" d="M173.64,38.49h.2l.04.282a1.433,1.433,0,0,0,.4.081.3.3,0,0,0,.242-.081.222.222,0,0,0,.121-.2.306.306,0,0,0-.081-.161c-.081-.04-.121-.081-.2-.121l-.282-.121a1.634,1.634,0,0,1-.363-.2.436.436,0,0,1-.121-.282.423.423,0,0,1,.2-.363,1.074,1.074,0,0,1,.484-.121,3.112,3.112,0,0,1,.6.081l-.04.443h-.2l-.04-.282a1.116,1.116,0,0,0-.363-.04c-.2,0-.323.081-.323.242A.209.209,0,0,0,174,37.8l.242.121.242.081a1.057,1.057,0,0,1,.363.2.366.366,0,0,1,.121.282.583.583,0,0,1-.081.282,1.069,1.069,0,0,1-.242.2,1.177,1.177,0,0,1-.363.081,1.116,1.116,0,0,1-.363-.04c-.121-.04-.2-.04-.323-.081Z" transform="translate(-103.074 -21.606)" fill="#fff"/>
    </g>
  </g>
</svg>
