<svg xmlns="http://www.w3.org/2000/svg" xmlns:xlink="http://www.w3.org/1999/xlink" width="55" height="42" viewBox="0 0 55 42">
  <defs>
    <clipPath id="clip-logo_01">
      <rect width="55" height="42"/>
    </clipPath>
  </defs>
  <g id="logo_01" data-name="logo 01" clip-path="url(#clip-logo_01)">
    <path id="anz-logo-mono" d="M46,8.2a1.708,1.708,0,1,0-3.389,0,3.039,3.039,0,0,0,.421,1.556,3.13,3.13,0,0,1,.334.843c.052.266.173.909-.5.919a3.529,3.529,0,0,1-2.373-1.659,6.417,6.417,0,0,1-1.062-3.6C39.431,3.082,41.612.5,44.3.5s4.868,2.582,4.868,5.766a6.421,6.421,0,0,1-1.062,3.6,3.525,3.525,0,0,1-2.373,1.659c-.669-.011-.55-.654-.5-.919a3.206,3.206,0,0,1,.334-.843A3.033,3.033,0,0,0,46,8.2Zm-16.49,7.845h4.068c.347,0,.581.224.581.687v2.3c0,.46-.234.684-.581.684h-8.6c-.354,0-.592-.246-.592-.7V18.63a4.964,4.964,0,0,1,.66-2.677l1.61-2.486h4.52ZM9.778,6.282c.325,0,.574.213.639.646l.846,5.605H3.457c1.229-2.319,2.327-4.38,2.327-4.38A3.654,3.654,0,0,1,7,6.783a2.963,2.963,0,0,1,1.629-.5Zm12.913,0c.349,0,.582.225.582.684h0v5.569H19.941l.446.931h2.887v5.568c0,.46-.233.688-.582.688H20.977a2.194,2.194,0,0,1-2.053-1.209l-2.239-4.721v5.242c0,.46-.231.688-.579.688H13.761c-.344,0-.578-.228-.578-.688V13.467h3.354l-.447-.931H13.183V6.967c0-.46.235-.684.578-.684h1.73a2.192,2.192,0,0,1,2.061,1.21l2.218,4.684V6.966c0-.46.234-.684.581-.684ZM7.547,13.467H11.4l.822,5.466a.75.75,0,0,1-.074.537.517.517,0,0,1-.48.253H9.019c-.33,0-.555-.216-.62-.64l-.185-1.222v0h0C7.983,16.336,7.616,13.909,7.547,13.467ZM0,19.162a.682.682,0,0,1,.082-.282c.026-.044.779-1.463,1.73-3.254l0,0v0l1.144-2.153H7.084l-3.04,5.707a1.072,1.072,0,0,1-.355.4.871.871,0,0,1-.476.148H.459a.4.4,0,0,1-.24-.065.5.5,0,0,1-.177-.2A.7.7,0,0,1,0,19.162ZM28.93,9.948H25.055c-.347,0-.579-.224-.579-.682v-2.3c0-.46.232-.684.579-.684h8.407c.356,0,.59.248.59.7v.887a3.72,3.72,0,0,1-.627,2.115l-1.648,2.546H27.259Zm23.985,2.161a2.268,2.268,0,0,0-1.268-.607,4.135,4.135,0,0,0-2.423.349,5.542,5.542,0,0,0-2.172,2.041,5.987,5.987,0,0,0-.646,4.183,4.161,4.161,0,0,0,.328,1.028,2.193,2.193,0,0,0,1.113,1.145.734.734,0,0,0,.739-.322c.871-1.185,4.172-5.774,4.529-6.36a1.15,1.15,0,0,0-.2-1.457ZM36.96,11.5a4.134,4.134,0,0,1,2.422.349,5.559,5.559,0,0,1,2.173,2.041,6.023,6.023,0,0,1,.646,4.183,4.178,4.178,0,0,1-.33,1.027,2.181,2.181,0,0,1-1.113,1.145.734.734,0,0,1-.74-.322c-.871-1.185-4.171-5.774-4.527-6.36a1.147,1.147,0,0,1,.2-1.457A2.261,2.261,0,0,1,36.96,11.5Z" transform="translate(1 10.617)" fill="#fff" fill-rule="evenodd"/>
  </g>
</svg>
