<svg xmlns="http://www.w3.org/2000/svg" xmlns:xlink="http://www.w3.org/1999/xlink" width="73.693" height="54.466" viewBox="0 0 73.693 54.466">
  <defs>
    <filter id="Ellipse_3" x="25.693" y="0" width="48" height="48" filterUnits="userSpaceOnUse">
      <feOffset dy="3" input="SourceAlpha"/>
      <feGaussianBlur stdDeviation="3" result="blur"/>
      <feFlood flood-opacity="0.161"/>
      <feComposite operator="in" in2="blur"/>
      <feComposite in="SourceGraphic"/>
    </filter>
  </defs>
  <g id="Group_9729" data-name="Group 9729" transform="translate(-688 -957.748)">
    <g id="Group_9720" data-name="Group 9720">
      <g transform="matrix(1, 0, 0, 1, 688, 957.75)" filter="url(#Ellipse_3)">
        <circle id="Ellipse_3-2" data-name="Ellipse 3" cx="15" cy="15" r="15" transform="translate(34.69 6)" fill="#feb700"/>
      </g>
      <g id="Group_9708" data-name="Group 9708">
        <path id="Path_24996" data-name="Path 24996" d="M-200.3,71.839q0,7.057,0,14.114c0,2.491-1.249,3.6-3.708,3.487-6.336-.293-12.508.376-18.217,3.428a23.008,23.008,0,0,0-2.349,1.522,2.419,2.419,0,0,1-2.989.076c-6.326-4.133-13.362-5.383-20.771-5.026-2.409.116-3.684-1.006-3.684-3.424q0-14.156,0-28.314,0-3.379,3.411-3.381A39.717,39.717,0,0,1-228.538,59.2c.664.376,1.277.847,1.952,1.2a1.032,1.032,0,0,0,.877-.007c6.814-4.507,14.4-6.136,22.445-6.062a2.924,2.924,0,0,1,2.964,3.14Q-200.286,64.654-200.3,71.839Zm-27.22,19.4V65.431c0-2.492.009-2.507-2.194-3.773a37.243,37.243,0,0,0-18.912-4.627c-.712,0-.674.379-.673.861q.008,13.985-.01,27.97c0,.7.164.917.9.871a40.838,40.838,0,0,1,11.148.852A34.331,34.331,0,0,1-227.516,91.24Zm2.722-.125a1,1,0,0,0,.212-.014,38.511,38.511,0,0,1,20.837-4.357c.659.036.737-.243.736-.79q-.017-14.068.006-28.138c0-.676-.247-.821-.846-.779-1.863.13-3.74.134-5.591.36a33.328,33.328,0,0,0-14.593,5.152,1.5,1.5,0,0,0-.779,1.426c.028,8.756.018,17.512.018,26.268Z" transform="translate(940.515 916.768)" fill="#2c1b18"/>
        <path id="Path_24996_-_Outline" data-name="Path 24996 - Outline" d="M-248.509,53.822a39.956,39.956,0,0,1,20.218,4.944c.308.174.6.367.889.553.356.232.693.452,1.048.636a.562.562,0,0,0,.22.038.457.457,0,0,0,.156-.022c6.253-4.134,13.514-6.144,22.2-6.144l.522,0a3.424,3.424,0,0,1,3.46,3.639c.006,3.423,0,6.9,0,10.269q0,2.051,0,4.1v2.417q0,5.848,0,11.7c0,2.613-1.34,3.995-3.874,3.995-.116,0-.236,0-.357-.008-.89-.041-1.763-.062-2.592-.062-6.1,0-10.986,1.09-15.365,3.431a21.581,21.581,0,0,0-2.188,1.413l-.109.077a3.148,3.148,0,0,1-1.836.647,3.131,3.131,0,0,1-1.715-.562c-5.152-3.366-11.086-5-18.141-5-.759,0-1.543.019-2.332.057a4.055,4.055,0,0,1-3.21-.991,4.014,4.014,0,0,1-1-2.932c0-9.394,0-18.92,0-28.314,0-2.534,1.353-3.876,3.91-3.881Zm22.374,7.171a1.5,1.5,0,0,1-.681-.151c-.4-.207-.772-.45-1.133-.686-.285-.186-.555-.362-.835-.521a38.985,38.985,0,0,0-19.725-4.814h-.093a3.052,3.052,0,0,0-2.207.7,2.968,2.968,0,0,0-.705,2.178c0,9.394,0,18.92,0,28.313,0,2,.907,2.932,2.853,2.932.1,0,.2,0,.307-.008.8-.039,1.605-.058,2.38-.058,7.255,0,13.368,1.69,18.688,5.165a2.129,2.129,0,0,0,1.168.4,2.192,2.192,0,0,0,1.26-.465l.109-.077a22.328,22.328,0,0,1,2.293-1.478,28.549,28.549,0,0,1,7.748-2.78,39.3,39.3,0,0,1,8.089-.769c.845,0,1.733.021,2.639.063.106,0,.21.007.311.007,1.987,0,2.873-.924,2.874-2.995q0-5.848,0-11.7V71.839q0-2.051,0-4.1c0-3.365,0-6.845,0-10.267a2.415,2.415,0,0,0-2.469-2.641l-.513,0c-8.484,0-15.566,1.957-21.651,5.982A1.3,1.3,0,0,1-226.135,60.993Zm-22.492-4.462c7.423.013,13.69,1.548,19.165,4.693a5.3,5.3,0,0,1,2.1,1.6,5.038,5.038,0,0,1,.342,2.574V92.093l-.745-.417a33.831,33.831,0,0,0-9.6-3.6,40.885,40.885,0,0,0-8.55-.919c-.818,0-1.646.026-2.462.077-.074,0-.142.007-.206.007a1.236,1.236,0,0,1-.905-.306,1.457,1.457,0,0,1-.322-1.072c.02-9.192.015-18.539.01-27.577v-.458a1.3,1.3,0,0,1,.285-.994A1.186,1.186,0,0,1-248.627,56.531ZM-228.016,90.4v-25a4.765,4.765,0,0,0-.206-2.07c-.2-.348-.679-.632-1.737-1.239-5.32-3.056-11.425-4.548-18.664-4.56a.854.854,0,0,0-.164.013,2.529,2.529,0,0,0-.008.277v.462c0,9.039.01,18.387-.01,27.58a1.227,1.227,0,0,0,.032.358.761.761,0,0,0,.2.018c.043,0,.091,0,.144,0,.836-.052,1.686-.079,2.524-.079a41.888,41.888,0,0,1,8.76.941A34.872,34.872,0,0,1-228.016,90.4Zm24.34-33.867a1.16,1.16,0,0,1,.855.3,1.363,1.363,0,0,1,.318.989c-.024,10.3-.016,20.448-.006,28.136a1.343,1.343,0,0,1-.3,1,1.112,1.112,0,0,1-.829.288c-.043,0-.088,0-.134,0-.864-.047-1.729-.07-2.57-.07a36.917,36.917,0,0,0-18,4.368.61.61,0,0,1-.3.068c-.027,0-.065,0-.122,0l-.529.031v-1.4q0-2.684,0-5.368c0-6.849,0-13.932-.019-20.9a2,2,0,0,1,1-1.845,31.615,31.615,0,0,1,7.11-3.492,37.578,37.578,0,0,1,7.7-1.74c1.2-.146,2.419-.2,3.6-.255.663-.03,1.348-.061,2.017-.108C-203.809,56.533-203.741,56.531-203.676,56.531Zm.145,1.012a.675.675,0,0,0-.145-.012c-.04,0-.087,0-.138.005-.681.048-1.373.079-2.042.109-1.162.053-2.363.107-3.524.248a32.606,32.606,0,0,0-14.378,5.073,1.015,1.015,0,0,0-.554,1.007c.022,6.967.021,14.051.019,20.9q0,2.684,0,5.368v.139a36.7,36.7,0,0,1,8.474-3.145,41.284,41.284,0,0,1,9.477-1.064c.859,0,1.742.024,2.624.072l.08,0a.735.735,0,0,0,.113-.007,1.648,1.648,0,0,0,.016-.285c-.009-7.688-.017-17.835.006-28.139A.924.924,0,0,0-203.531,57.543Z" transform="translate(940.515 916.768)" fill="#2c1b18"/>
        <path id="Path_24997" data-name="Path 24997" d="M-201.422,36.14a32.569,32.569,0,0,0-12.21,2.108,32.1,32.1,0,0,0-7.6,4.1c-1.1.8-1.4.793-2.5.006a32.563,32.563,0,0,0-18.975-6.22c-.226,0-.453.005-.679.017a.454.454,0,0,0-.151.07c-.142,1.333-.605,1.935-1.461,1.9-.9-.036-1.313-.692-1.313-2.09,0-2.066.475-2.568,2.53-2.6A35.166,35.166,0,0,1-223.228,39.4a1.105,1.105,0,0,0,1.47.016,35.117,35.117,0,0,1,20.709-5.98c1.84.039,2.378.595,2.379,2.41,0,.283.011.568,0,.85a1.4,1.4,0,0,1-1.377,1.429,1.4,1.4,0,0,1-1.336-1.384C-201.4,36.571-201.407,36.4-201.422,36.14Z" transform="translate(936.847 930.193)" fill="#2c1b18"/>
        <path id="Path_24997_-_Outline" data-name="Path 24997 - Outline" d="M-243.093,32.924a36.629,36.629,0,0,1,10.514,1.5,36.047,36.047,0,0,1,9.627,4.555.949.949,0,0,0,.472.2.821.821,0,0,0,.444-.188,35.971,35.971,0,0,1,9.63-4.568,36.572,36.572,0,0,1,10.516-1.506c.281,0,.568,0,.851.009a3.007,3.007,0,0,1,2.225.688,2.967,2.967,0,0,1,.644,2.222c0,.078,0,.157,0,.236,0,.208,0,.423-.007.642a1.886,1.886,0,0,1-1.885,1.9,1.9,1.9,0,0,1-1.825-1.835c0-.05-.009-.1-.012-.152h-.144a31.837,31.837,0,0,0-11.415,2.082,31.744,31.744,0,0,0-7.48,4.037,2.678,2.678,0,0,1-1.542.694h0a2.7,2.7,0,0,1-1.538-.686,32.217,32.217,0,0,0-18.69-6.127c-.119,0-.24,0-.376,0-.223,1.318-.841,1.985-1.841,1.985l-.088,0c-1.19-.048-1.793-.919-1.793-2.59a3.324,3.324,0,0,1,.635-2.411,3.33,3.33,0,0,1,2.386-.692C-243.554,32.926-243.322,32.924-243.093,32.924Zm20.614,7.263a1.88,1.88,0,0,1-1.026-.372,34.749,34.749,0,0,0-19.588-5.89c-.223,0-.45,0-.673.006-.933.016-1.437.132-1.685.387s-.354.769-.354,1.715c0,1.558.542,1.579.833,1.591h.048c.241,0,.741,0,.9-1.455l.029-.274.242-.12.012-.007a.7.7,0,0,1,.336-.116c.278-.015.5-.021.714-.018a33.918,33.918,0,0,1,10.125,1.645,33.691,33.691,0,0,1,9.135,4.669c.507.363.766.5.956.5s.45-.136.954-.5a32.744,32.744,0,0,1,7.716-4.164,32.822,32.822,0,0,1,11.767-2.146h0c.208,0,.419,0,.628.006l.464.008.026.464c0,.089.009.167.012.239.006.134.012.24.021.339.055.567.379.924.847.932h.015a.907.907,0,0,0,.855-.956c.01-.186.008-.375.006-.576,0-.082,0-.164,0-.247a2.186,2.186,0,0,0-.357-1.521,2.228,2.228,0,0,0-1.533-.39c-.276-.006-.556-.009-.83-.009A34.681,34.681,0,0,0-221.48,39.83,1.785,1.785,0,0,1-222.479,40.186Z" transform="translate(936.847 930.193)" fill="#2c1b18"/>
        <path id="Path_24998" data-name="Path 24998" d="M-180.813,22.826c0,.453.028.909-.006,1.36a1.35,1.35,0,0,1-1.393,1.312,1.329,1.329,0,0,1-1.3-1.314c-.038-.934-.038-1.872,0-2.805a1.326,1.326,0,0,1,1.3-1.311,1.345,1.345,0,0,1,1.391,1.313C-180.785,21.86-180.813,22.344-180.813,22.826Z" transform="translate(896.528 938.773)" fill="#2c1b18"/>
        <path id="Path_24998_-_Outline" data-name="Path 24998 - Outline" d="M-182.163,26h-.067a1.823,1.823,0,0,1-1.784-1.793c-.038-.946-.038-1.9,0-2.846a1.821,1.821,0,0,1,1.787-1.79h.063a1.842,1.842,0,0,1,1.842,1.778c.026.353.019.7.013,1.042,0,.145-.005.294-.005.439s0,.28.005.418c.006.318.012.647-.013.98A1.844,1.844,0,0,1-182.163,26Zm0-5.432h-.031a.831.831,0,0,0-.82.832c-.038.916-.038,1.846,0,2.765A.833.833,0,0,0-182.2,25h.032a.855.855,0,0,0,.845-.85c.022-.287.016-.578.01-.886,0-.142-.005-.29-.005-.437s0-.308.006-.457c.006-.331.012-.644-.011-.952A.844.844,0,0,0-182.163,20.567Z" transform="translate(896.528 938.773)" fill="#2c1b18"/>
        <path id="Path_24999" data-name="Path 24999" d="M-197.274,23.5a4.572,4.572,0,0,1,.974.471,15.942,15.942,0,0,1,1.5,1.488,1.3,1.3,0,0,1-.044,1.835,1.3,1.3,0,0,1-1.835.07,7.95,7.95,0,0,1-1.523-1.571,1.711,1.711,0,0,1-.122-1.389C-198.163,24.018-197.629,23.788-197.274,23.5Z" transform="translate(906.085 936.567)" fill="#2c1b18"/>
        <path id="Path_24999_-_Outline" data-name="Path 24999 - Outline" d="M-197.344,22.916l.283.132c.136.064.261.114.381.163a2.352,2.352,0,0,1,.711.386,16.333,16.333,0,0,1,1.544,1.535,1.793,1.793,0,0,1-.066,2.515,1.837,1.837,0,0,1-1.307.563,1.838,1.838,0,0,1-1.21-.466l-.025-.022a8.19,8.19,0,0,1-1.59-1.655,2.194,2.194,0,0,1-.165-1.855,2.119,2.119,0,0,1,.882-.878c.118-.077.229-.151.317-.222Zm1.547,4.295a.846.846,0,0,0,.6-.267.805.805,0,0,0,.022-1.155,15.351,15.351,0,0,0-1.451-1.441,1.689,1.689,0,0,0-.424-.209l-.158-.064-.143.1a1.59,1.59,0,0,0-.509.429,1.222,1.222,0,0,0,.08.922,7.461,7.461,0,0,0,1.405,1.444l.025.022A.853.853,0,0,0-195.8,27.21Z" transform="translate(906.085 936.567)" fill="#2c1b18"/>
        <path id="Path_25000" data-name="Path 25000" d="M-167.849,25.309a5.414,5.414,0,0,1-.525,1.032,14.7,14.7,0,0,1-1.371,1.389,1.321,1.321,0,0,1-1.909,0,1.315,1.315,0,0,1-.007-1.907,7.52,7.52,0,0,1,1.464-1.405,1.776,1.776,0,0,1,1.392-.164C-168.412,24.406-168.166,24.936-167.849,25.309Z" transform="translate(889.156 936.132)" fill="#2c1b18"/>
        <path id="Path_25000_-_Outline" data-name="Path 25000 - Outline" d="M-169.275,23.678a1.808,1.808,0,0,1,.651.11,2.141,2.141,0,0,1,.907.862c.086.122.167.238.249.334l.214.251-.146.3c-.069.14-.126.27-.18.4a2.8,2.8,0,0,1-.414.741,15.244,15.244,0,0,1-1.418,1.436,1.964,1.964,0,0,1-1.311.535,1.823,1.823,0,0,1-1.284-.552,1.818,1.818,0,0,1-.026-2.6l.178-.2A6.728,6.728,0,0,1-170.463,24,2.321,2.321,0,0,1-169.275,23.678Zm.845,1.7-.105-.149c-.149-.212-.318-.453-.448-.5a.85.85,0,0,0-.291-.043,1.345,1.345,0,0,0-.655.164,6,6,0,0,0-1.177,1.113l-.182.2a.818.818,0,0,0-.012,1.218.821.821,0,0,0,.579.261.985.985,0,0,0,.645-.281,14.239,14.239,0,0,0,1.325-1.341,2.081,2.081,0,0,0,.255-.487Z" transform="translate(889.156 936.132)" fill="#2c1b18"/>
      </g>
    </g>
  </g>
</svg>
