<svg xmlns="http://www.w3.org/2000/svg" xmlns:xlink="http://www.w3.org/1999/xlink" width="66.693" height="53.966" viewBox="0 0 66.693 53.966">
  <defs>
    <filter id="Ellipse_3" x="18.693" y="0" width="48" height="48" filterUnits="userSpaceOnUse">
      <feOffset dy="3" input="SourceAlpha"/>
      <feGaussianBlur stdDeviation="3" result="blur"/>
      <feFlood flood-opacity="0.161"/>
      <feComposite operator="in" in2="blur"/>
      <feComposite in="SourceGraphic"/>
    </filter>
  </defs>
  <g id="Group_9728" data-name="Group 9728" transform="translate(-300 -957.748)">
    <g id="Group_9721" data-name="Group 9721">
      <g transform="matrix(1, 0, 0, 1, 300, 957.75)" filter="url(#Ellipse_3)">
        <circle id="Ellipse_3-2" data-name="Ellipse 3" cx="15" cy="15" r="15" transform="translate(27.69 6)" fill="#feb700"/>
      </g>
      <g id="Group_2387" data-name="Group 2387" transform="translate(300 963.342)">
        <path id="Path_24993" data-name="Path 24993" d="M-347.851,526.331c0-1.685.014-3.369-.013-5.053a1.847,1.847,0,0,0-.277-.931,8.47,8.47,0,0,1,.027-9.375,8.46,8.46,0,0,1,8.725-3.557,8.433,8.433,0,0,1,6.554,6.7,8.349,8.349,0,0,1-1.269,6.248,1.728,1.728,0,0,0-.269.875q-.028,5.053-.006,10.106a1.767,1.767,0,0,1-.936,1.767,1.79,1.79,0,0,1-1.945-.243c-1.149-.8-2.323-1.563-3.468-2.368a.576.576,0,0,0-.787.012c-1.1.773-2.234,1.5-3.336,2.278a1.9,1.9,0,0,1-2.081.317,1.844,1.844,0,0,1-.927-1.883C-347.838,529.594-347.851,527.962-347.851,526.331Zm1.724-10.663a5.05,5.05,0,0,0,5,5.024,5.077,5.077,0,0,0,5.034-5,5.013,5.013,0,0,0-5.036-5.032A4.987,4.987,0,0,0-346.127,515.668Zm1.714,12.625a.793.793,0,0,0,.169-.043q.948-.635,1.894-1.274a1.836,1.836,0,0,1,2.479,0c.667.451,1.334.9,2.058,1.39v-4.907a8.662,8.662,0,0,1-6.6-.005Z" transform="translate(378.984 -484.929)" fill="#2c1b18"/>
        <path id="Path_24994" data-name="Path 24994" d="M-449.142,362.012a11.924,11.924,0,0,1-11.932,11.894,11.943,11.943,0,0,1-11.91-11.978,11.941,11.941,0,0,1,11.967-11.866A11.921,11.921,0,0,1-449.142,362.012Zm-3.406-.032a8.511,8.511,0,0,0-8.527-8.511,8.531,8.531,0,0,0-8.5,8.491,8.533,8.533,0,0,0,8.509,8.539A8.514,8.514,0,0,0-452.548,361.979Z" transform="translate(484.905 -350.062)" fill="#2c1b18"/>
        <path id="Path_24995" data-name="Path 24995" d="M-553.541,559.011h.669q9.1,0,18.2,0a1.707,1.707,0,0,1,1.743,2.277,1.7,1.7,0,0,1-1.59,1.124c-.567.013-1.135,0-1.7,0H-554.9c-1.45,0-2.088-.624-2.075-2.067a33.688,33.688,0,0,1,.294-6.047,15.213,15.213,0,0,1,13.446-12.2c2.93-.218,5.885-.108,8.829-.108a1.662,1.662,0,0,1,1.585,1.741,1.7,1.7,0,0,1-1.743,1.647c-2.377.011-4.756-.051-7.132.016a11.683,11.683,0,0,0-10.648,6.664A12.819,12.819,0,0,0-553.541,559.011Z" transform="translate(556.978 -514.729)" fill="#2c1b18"/>
      </g>
    </g>
  </g>
</svg>
