<svg xmlns="http://www.w3.org/2000/svg" width="166.846" height="30.897" viewBox="0 0 166.846 30.897">
  <g id="Group_9776" data-name="Group 9776" transform="translate(-173.487 -1)">
    <g id="Group_9775" data-name="Group 9775" transform="translate(19 1)">
      <g id="_2" data-name="2" transform="translate(154.487)">
        <g id="_1" data-name="1" transform="translate(0 0)">
          <path id="Bg" d="M15.449,0H151.4a15.449,15.449,0,1,1,0,30.9H15.449a15.449,15.449,0,1,1,0-30.9Z" transform="translate(0 0)" fill="#e5fdc3" fill-rule="evenodd"/>
          <g id="icon" transform="translate(9.269 5.219)">
            <g id="Shape" transform="translate(0 0)">
              <path id="Path_24155" data-name="Path 24155" d="M8.4,21.095l-.387-.2c-3.282-1.678-5.456-3.327-6.646-5.04A6.723,6.723,0,0,1,.158,11.71V3.653L8.4.068l8.239,3.585V11.71a6.723,6.723,0,0,1-1.206,4.147c-1.19,1.713-3.364,3.362-6.646,5.04Z" transform="translate(-0.158 -0.068)"/>
              <path id="Path_24156" data-name="Path 24156" d="M8.4,21.095l-.387-.2c-3.282-1.678-5.456-3.327-6.646-5.04A6.723,6.723,0,0,1,.158,11.71V3.653L8.4.068l8.239,3.585V11.71a6.723,6.723,0,0,1-1.206,4.147c-1.19,1.713-3.364,3.362-6.646,5.04Z" transform="translate(-0.158 -0.068)" fill="#8cc63b"/>
            </g>
            <path id="_" data-name="£" d="M7.606,11.371a2.79,2.79,0,0,1-.114.874,1.209,1.209,0,0,1-.4.566h3.972v1.428H5v-1.2a1.574,1.574,0,0,0,.666-.554,1.76,1.76,0,0,0,.176-.874V10.7H5V9.634h.842V8.3a2.238,2.238,0,0,1,.324-1.2,2.135,2.135,0,0,1,.922-.811A3.142,3.142,0,0,1,8.46,6a4.7,4.7,0,0,1,1.491.234,3.644,3.644,0,0,1,1.229.68l-.58,1.28a4.447,4.447,0,0,0-1.041-.589,2.659,2.659,0,0,0-.95-.2.892.892,0,0,0-1,1.017V9.634H9.45V10.7H7.606Z" transform="translate(-0.013 0.11)" fill="#f4fffe"/>
          </g>
          <path id="MONEYBACKGUARANTEE" d="M38.412,19.253l-.089-2.17-.2-2.348h-.111l-1.417,3.8H35.222l-1.24-3.8H33.86l-.221,2.182-.144,2.337H32l.709-7.142H34.78l.255,1.041.919,3.056h.111l1-3.023.288-1.074h2.038L40,19.253ZM44.181,12a3.026,3.026,0,0,1,2.359.914,3.726,3.726,0,0,1,.831,2.6,4.126,4.126,0,0,1-.908,2.851A3.257,3.257,0,0,1,43.9,19.375a2.974,2.974,0,0,1-2.348-.936,3.865,3.865,0,0,1-.831-2.652,4,4,0,0,1,.9-2.8A3.287,3.287,0,0,1,44.181,12Zm-.155,1.44a1.543,1.543,0,0,0-.842.2,1.132,1.132,0,0,0-.448.659,4.478,4.478,0,0,0-.138,1.246,5.9,5.9,0,0,0,.144,1.473,1.347,1.347,0,0,0,.46.764,1.417,1.417,0,0,0,.858.233,1.487,1.487,0,0,0,.831-.2,1.182,1.182,0,0,0,.454-.664,4.366,4.366,0,0,0,.144-1.257,5.774,5.774,0,0,0-.144-1.456,1.343,1.343,0,0,0-.46-.759A1.417,1.417,0,0,0,44.026,13.44Zm10.553,5.814H52.63l-2.536-4.418h-.111l-.011,1.9.078,2.514H48.4l.1-2.1-.089-5.039H50.36L52.9,16.529h.111l-.055-4.352,1.661-.1-.1,4.917Zm6.412-1.329-.111,1.329H56.163l.1-2.115-.1-5.027h4.784l.1.133-.122,1.329-1.738-.066-1.218.011-.022,1.428h1.163l1.163-.033.1.133-.111,1.329-1.273-.033H57.912l-.011.62.022.886,1.174.011,1.794-.066Zm4.164,1.329H63.361l.089-1.938-.011-.388-2.281-4.817H63.05l.166.532,1.041,2.492h.122l1.174-2.425.221-.6h1.849L65.1,16.883l-.022.432Zm8.892-3.688a1.9,1.9,0,0,1,1.052.581,1.63,1.63,0,0,1,.332,1.069q0,2.1-3.411,2.1-1.107,0-2.115-.066h-.011l.1-2.115-.1-5.027,2.813-.011a2.992,2.992,0,0,1,1.783.465,1.553,1.553,0,0,1,.642,1.34,1.753,1.753,0,0,1-.282.991A1.9,1.9,0,0,1,74.047,15.566ZM73.3,14.148a.686.686,0,0,0-.282-.631,2.051,2.051,0,0,0-1.013-.177h-.354l-.044,1.739.952.044a1.069,1.069,0,0,0,.559-.343A1,1,0,0,0,73.3,14.148Zm-.952,3.931a1.549,1.549,0,0,0,.93-.244.813.813,0,0,0,.332-.7.73.73,0,0,0-.21-.548,1.349,1.349,0,0,0-.653-.3l-1.163.022-.011.653.033,1.074Q72.186,18.079,72.352,18.079Zm8.206,1.174-.188-1.03-.1-.41-1.285-.022-1.107.033-.089.288-.2,1.141H75.829l2.3-7.142h2.159l2.093,7.142Zm-1.329-5.5h-.111l-.831,2.713.819.022.82-.022Zm6.9-1.738a4.543,4.543,0,0,1,1.849.365l-.321,1.473-.122.066a2.633,2.633,0,0,0-1.473-.443,1.392,1.392,0,0,0-1.179.5,2.593,2.593,0,0,0-.382,1.572q0,2.325,1.65,2.326a3.229,3.229,0,0,0,1.517-.377l.155.089-.144,1.473a4.461,4.461,0,0,1-1.672.31,3.292,3.292,0,0,1-2.536-.93,3.815,3.815,0,0,1-.864-2.691,3.863,3.863,0,0,1,.919-2.757A3.4,3.4,0,0,1,86.128,12.011Zm6.179,3.466q1.129,1.672,2.558,3.4l-.022.2a11.971,11.971,0,0,1-1.783.3l-.2-.111q-1.373-2.038-2.281-3.543l-.022,1.24.077,2.292h-1.8l.1-2.115-.1-5.027h1.827l-.066,3.2,1.739-2.48.4-.72h1.927Zm8.139-3.466a5.083,5.083,0,0,1,2.071.388L102.14,14h-.155a5.058,5.058,0,0,0-.969-.426,3.134,3.134,0,0,0-.9-.127,1.819,1.819,0,0,0-.952.216,1.284,1.284,0,0,0-.526.714,4.323,4.323,0,0,0-.172,1.362,4.248,4.248,0,0,0,.166,1.334,1.222,1.222,0,0,0,.526.692,1.968,1.968,0,0,0,.991.21,2.81,2.81,0,0,0,.72-.111l.011-.5-.033-1.152,1.65-.111-.022.963.01,1.827a7.489,7.489,0,0,1-2.491.465,3.32,3.32,0,0,1-2.547-.914,3.7,3.7,0,0,1-.853-2.619,3.808,3.808,0,0,1,1-2.84A3.905,3.905,0,0,1,100.446,12.011Zm8.958,4.751a2.375,2.375,0,0,1-.769,1.927,3.291,3.291,0,0,1-2.22.676,3.077,3.077,0,0,1-2.131-.664,2.34,2.34,0,0,1-.7-1.9l.022-1.085-.044-3.6h1.794l-.077,4.441a1.487,1.487,0,0,0,.288,1.041,1.189,1.189,0,0,0,.93.332,1.237,1.237,0,0,0,.946-.327,1.394,1.394,0,0,0,.294-1l-.077-4.485h1.827l-.067,3.621Zm5.205,2.492-.188-1.03-.1-.41-1.284-.022-1.107.033-.089.288-.2,1.141h-1.76l2.3-7.142h2.16l2.093,7.142Zm-1.329-5.5h-.111l-.83,2.713.819.022.82-.022Zm8.227,2.68q.919,1.429,1.661,2.4l-.022.2a7.341,7.341,0,0,1-1.783.343l-.177-.144q-.664-1.24-1.152-2.27h-.941l.067,2.292h-1.805l.1-2.115-.1-5.027,3.013-.011a2.6,2.6,0,0,1,1.788.559,2.035,2.035,0,0,1,.626,1.6,2.362,2.362,0,0,1-.333,1.218A2.82,2.82,0,0,1,121.508,16.429Zm-1.417-.775a1.175,1.175,0,0,0,.8-1.229,1,1,0,0,0-.271-.77,1.3,1.3,0,0,0-.848-.271l-.6.033-.044,2.193Zm8.007,3.6-.188-1.03-.1-.41-1.284-.022-1.107.033-.089.288-.2,1.141h-1.76l2.3-7.142h2.16l2.093,7.142Zm-1.329-5.5h-.111l-.83,2.713.819.022.82-.022Zm10.254,5.5h-1.949l-2.537-4.418h-.11l-.011,1.9.077,2.514h-1.65l.1-2.1-.089-5.039H132.8l2.537,4.418h.11l-.056-4.352,1.661-.1-.1,4.917Zm6.234-5.692-1.394-.066h-.31l-.056,3.466.066,2.292h-1.794l.1-2.115-.056-3.643h-.332l-1.407.066-.11-.133.11-1.318h5.183l.1.133Zm5.825,4.363-.111,1.329h-4.717l.1-2.115-.1-5.027h4.784l.1.133-.123,1.329-1.738-.066-1.217.011-.023,1.428H147.2l1.163-.033.1.133-.111,1.329-1.273-.033H146l-.011.62.023.886,1.173.011,1.794-.066Zm5.78,0-.11,1.329h-4.717l.1-2.115-.1-5.027h4.783l.1.133-.122,1.329-1.739-.066-1.218.011-.022,1.428h1.163l1.163-.033.1.133-.11,1.329-1.274-.033h-1.074l-.01.62.022.886,1.174.011,1.794-.066Z" transform="translate(0.957 0.359)" fill="#387715"/>
        </g>
      </g>
    </g>
  </g>
</svg>
