<svg xmlns="http://www.w3.org/2000/svg" width="144.188" height="30.897" viewBox="0 0 144.188 30.897">
  <g id="Group_9774" data-name="Group 9774" transform="translate(-3 -1)">
    <g id="Group_2242" data-name="Group 2242" transform="translate(3 1)">
      <path id="Bg" d="M15.449,0h113.29a15.449,15.449,0,1,1,0,30.9H15.449a15.449,15.449,0,1,1,0-30.9Z" transform="translate(0 0)" fill="#e9f0f3" fill-rule="evenodd"/>
      <g id="icon" transform="translate(3.09 3.245)">
        <path id="Shape" d="M12.359,0A12.359,12.359,0,1,0,24.718,12.359,12.373,12.373,0,0,0,12.359,0Zm0,22.658a10.3,10.3,0,1,1,10.3-10.3A10.311,10.311,0,0,1,12.359,22.658Z" transform="translate(0 0)" fill="#fff"/>
        <path id="Path" d="M12.239,4a8.239,8.239,0,1,0,8.239,8.239A8.249,8.249,0,0,0,12.239,4Z" transform="translate(0.12 0.12)" fill="#ffd116"/>
        <path id="Path-2" data-name="Path" d="M11.549,12.142l-1.056-1.056L9,12.579l2.549,2.548,4.66-4.66L14.716,8.975Z" transform="translate(0.269 0.268)"/>
      </g>
      <path id="NOHIDDENCHARGES" d="M38.04,19.09H36.135l-2.479-4.319h-.108l-.011,1.862.076,2.457H32l.1-2.057-.087-4.925h1.905l2.479,4.319H36.5l-.054-4.254,1.624-.1-.1,4.806ZM42.468,12a2.957,2.957,0,0,1,2.306.893,3.643,3.643,0,0,1,.812,2.538,4.033,4.033,0,0,1-.888,2.787,3.184,3.184,0,0,1-2.5.99,2.907,2.907,0,0,1-2.295-.915A3.777,3.777,0,0,1,39.09,15.7a3.911,3.911,0,0,1,.882-2.739A3.213,3.213,0,0,1,42.468,12Zm-.152,1.407a1.508,1.508,0,0,0-.823.195,1.106,1.106,0,0,0-.438.644,4.381,4.381,0,0,0-.135,1.218,5.765,5.765,0,0,0,.141,1.44,1.316,1.316,0,0,0,.449.747,1.386,1.386,0,0,0,.839.227,1.454,1.454,0,0,0,.812-.2,1.156,1.156,0,0,0,.444-.65,4.265,4.265,0,0,0,.141-1.229,5.64,5.64,0,0,0-.141-1.423,1.313,1.313,0,0,0-.449-.742A1.386,1.386,0,0,0,42.316,13.407Zm11.9,5.683H52.448l.087-2.068-.011-.7L51.117,16.3l-1.245.032-.011.52.065,2.241H48.162l.1-2.068-.1-4.915h1.8L49.9,14.879l1.321.032L52.5,14.89l-.054-2.782h1.786l-.1,4.741Zm3.312,0H55.761l.1-2.068-.1-4.915h1.8l-.1,4.741Zm4.525-7.025A3.12,3.12,0,0,1,64.4,12.9a3.341,3.341,0,0,1,.812,2.419,4.031,4.031,0,0,1-.931,2.858,3.467,3.467,0,0,1-2.663,1q-1,0-2.511-.087h-.011l.1-2.068-.1-4.915h.011Zm-.108,5.78q1.44,0,1.44-2.1a3.36,3.36,0,0,0-.346-1.764,1.244,1.244,0,0,0-1.126-.53q-.574,0-1.05.043l-.065,3.356.022.909A8.509,8.509,0,0,0,61.942,17.845Zm7.242-5.78a3.12,3.12,0,0,1,2.349.839,3.341,3.341,0,0,1,.812,2.419,4.031,4.031,0,0,1-.931,2.858,3.468,3.468,0,0,1-2.663,1q-1,0-2.511-.087h-.011l.1-2.068-.1-4.915h.011Zm-.108,5.78q1.44,0,1.44-2.1a3.361,3.361,0,0,0-.346-1.764,1.244,1.244,0,0,0-1.126-.53q-.574,0-1.05.043l-.065,3.356.022.909A8.509,8.509,0,0,0,69.075,17.845Zm9.006-.054-.108,1.3H73.362l.1-2.068-.1-4.915h4.676l.1.13-.119,1.3-1.7-.065-1.191.011-.022,1.4h1.137l1.137-.032.1.13-.108,1.3-1.245-.033h-1.05l-.011.606.022.866,1.147.011,1.754-.065Zm6.971,1.3H83.148l-2.479-4.319h-.108l-.011,1.862.076,2.457H79.013l.1-2.057-.087-4.925h1.905l2.479,4.319h.108l-.054-4.254,1.624-.1-.1,4.806Zm6.062-7.079a4.441,4.441,0,0,1,1.808.357l-.314,1.44-.119.065a2.573,2.573,0,0,0-1.44-.433,1.36,1.36,0,0,0-1.153.487,2.534,2.534,0,0,0-.373,1.537q0,2.273,1.613,2.273a3.156,3.156,0,0,0,1.483-.368l.151.087L92.63,18.9A4.36,4.36,0,0,1,91,19.2a3.218,3.218,0,0,1-2.479-.909,3.729,3.729,0,0,1-.844-2.63,3.777,3.777,0,0,1,.9-2.7A3.328,3.328,0,0,1,91.115,12.011Zm8.692,7.079H98.043l.087-2.068-.011-.7L96.711,16.3l-1.245.032-.011.52.065,2.241H93.756l.1-2.068-.1-4.915h1.8L95.5,14.879l1.321.032L98.1,14.89l-.054-2.782h1.786l-.1,4.741Zm5.467,0-.184-1.007-.1-.4-1.255-.022-1.082.032-.087.281-.195,1.115h-1.721l2.252-6.982h2.11l2.046,6.982Zm-1.3-5.38h-.108l-.812,2.652.8.022.8-.022Zm8.044,2.62q.9,1.4,1.623,2.349l-.022.195a7.163,7.163,0,0,1-1.743.336l-.173-.141q-.65-1.212-1.126-2.219h-.921l.065,2.241h-1.764l.1-2.068-.1-4.915L110.9,12.1a2.539,2.539,0,0,1,1.749.547,1.991,1.991,0,0,1,.611,1.564,2.31,2.31,0,0,1-.324,1.191A2.763,2.763,0,0,1,112.018,16.33Zm-1.386-.758a1.148,1.148,0,0,0,.78-1.2.977.977,0,0,0-.265-.752,1.272,1.272,0,0,0-.828-.265l-.585.032-.043,2.143Zm7.058-3.561a4.97,4.97,0,0,1,2.025.379l-.369,1.57h-.151a4.933,4.933,0,0,0-.948-.417,3.063,3.063,0,0,0-.882-.124,1.78,1.78,0,0,0-.931.211,1.254,1.254,0,0,0-.514.7,4.214,4.214,0,0,0-.168,1.331,4.158,4.158,0,0,0,.162,1.3,1.2,1.2,0,0,0,.515.677,1.92,1.92,0,0,0,.968.206,2.752,2.752,0,0,0,.7-.108l.01-.487-.032-1.126,1.613-.108-.022.942.01,1.786a7.328,7.328,0,0,1-2.436.455,3.243,3.243,0,0,1-2.489-.893,3.613,3.613,0,0,1-.833-2.56,3.725,3.725,0,0,1,.973-2.777A3.82,3.82,0,0,1,117.69,12.011Zm7.913,5.78-.108,1.3h-4.611l.1-2.068-.1-4.915h4.676l.1.13-.119,1.3-1.7-.065-1.191.011-.022,1.4h1.137l1.136-.032.1.13-.108,1.3-1.245-.033h-1.051l-.01.606.022.866,1.147.011,1.754-.065ZM128.948,12a5.2,5.2,0,0,1,1.884.368l-.281,1.472-.261.1a2.97,2.97,0,0,0-1.537-.574.853.853,0,0,0-.569.179.535.535,0,0,0-.211.417.554.554,0,0,0,.266.46,5.267,5.267,0,0,0,.838.449,9.187,9.187,0,0,1,.979.514,2.263,2.263,0,0,1,.65.622,1.6,1.6,0,0,1,.276.953,1.994,1.994,0,0,1-.341,1.137,2.338,2.338,0,0,1-.969.807,3.349,3.349,0,0,1-1.45.3,5.737,5.737,0,0,1-2.165-.433l.249-1.57.183-.108a3.612,3.612,0,0,0,.991.59,2.6,2.6,0,0,0,.926.211.922.922,0,0,0,.622-.184.557.557,0,0,0,.211-.433.582.582,0,0,0-.271-.487,5.17,5.17,0,0,0-.845-.455,9.06,9.06,0,0,1-.958-.5,2.192,2.192,0,0,1-.644-.622,1.63,1.63,0,0,1-.271-.953,2.038,2.038,0,0,1,.341-1.153,2.306,2.306,0,0,1,.953-.806A3.215,3.215,0,0,1,128.948,12Z" transform="translate(0.957 0.359)" fill="#1d1d28"/>
    </g>
  </g>
</svg>
