<svg xmlns="http://www.w3.org/2000/svg" width="321.912" height="32.407" viewBox="0 0 321.912 32.407">
  <g id="Group_9777" data-name="Group 9777" transform="translate(-1025 -8203.037)">
    <g id="Page-1" transform="translate(1025 8203.037)">
      <g id="payment_methods">
        <g id="wire-transfer" transform="translate(267.9)">
          <path id="rect" d="M3.236,0A3.237,3.237,0,0,0,0,3.241H0V29.166a3.242,3.242,0,0,0,3.236,3.241H50.776a3.236,3.236,0,0,0,3.236-3.241h0V3.241A3.241,3.241,0,0,0,50.776,0H3.236Z" fill="#2363af"/>
          <g id="Group" transform="translate(7.632 7.606)">
            <path id="Fill-36" d="M26.639,8.035l4.225-2.714L26.639,2.609Z" transform="translate(2.138 0.209)" fill="#73aadc"/>
            <path id="Fill-37" d="M31.954,8.035l4.225-2.714L31.954,2.609Z" transform="translate(2.564 0.209)" fill="#73aadc"/>
            <path id="Clip-5" d="M1.108,9.791.93,10.6H.223L0,11.623H.7l-.45,2.042a6.858,6.858,0,0,0-.188,1.08h0a.939.939,0,0,0,.349.776h0a1.789,1.789,0,0,0,1.118.28h0a4.019,4.019,0,0,0,.769-.071h0l.227-1.019c-.256.023-.415.035-.48.035h0a.621.621,0,0,1-.385-.089h0a.3.3,0,0,1-.106-.246h0a6.317,6.317,0,0,1,.126-.66h0l.47-2.127h.891L3.268,10.6H2.383l.39-1.759Z" transform="translate(0 0.71)" fill="#fff"/>
            <path id="Clip-8" d="M5.042,11.466l.218-.984H3.9L2.782,15.559H4.234l.353-1.592a6.915,6.915,0,0,1,.43-1.417h0a1.819,1.819,0,0,1,.6-.714h0a1.339,1.339,0,0,1,.76-.269h0a1.307,1.307,0,0,1,.42.067h0l.556-1.122a1.753,1.753,0,0,0-.672-.149h0a2.084,2.084,0,0,0-1.645,1.1Z" transform="translate(0.223 0.831)" fill="#fff"/>
            <path id="Clip-11" d="M8.065,10.746a2.019,2.019,0,0,0-.848,1.062h0l1.416.113a.748.748,0,0,1,.306-.428h0a1.091,1.091,0,0,1,.615-.151h0a.886.886,0,0,1,.556.148h0a.454.454,0,0,1,.188.368h0a1.61,1.61,0,0,1-.093.46h0a7.265,7.265,0,0,1-1.384.2h0a2.891,2.891,0,0,0-1.708.526h0A1.492,1.492,0,0,0,6.635,14.2h0a1.4,1.4,0,0,0,.436,1.064h0a1.534,1.534,0,0,0,1.1.413h0a2.087,2.087,0,0,0,.835-.179h0a2.2,2.2,0,0,0,.732-.513h0a2.6,2.6,0,0,0,.106.574h1.412a2.483,2.483,0,0,1-.12-.722h0a6.521,6.521,0,0,1,.212-1.273h0c.171-.732.272-1.185.3-1.358h0a3.028,3.028,0,0,0,.043-.487h0a1.189,1.189,0,0,0-.5-.962h0a2.446,2.446,0,0,0-1.532-.4h0a2.954,2.954,0,0,0-1.6.383Zm.118,3.741a.524.524,0,0,1-.181-.4H8a.542.542,0,0,1,.238-.464h0a3.459,3.459,0,0,1,1.426-.363h0a3.106,3.106,0,0,0,.349-.063h0l-.04.181a2.558,2.558,0,0,1-.255.739h0a1.066,1.066,0,0,1-.436.387h0a1.327,1.327,0,0,1-.619.151h0a.689.689,0,0,1-.481-.164Z" transform="translate(0.532 0.831)" fill="#fff"/>
            <path id="Clip-14" d="M15.262,10.543a3.709,3.709,0,0,0-.964.6h0l.14-.66H13.063l-1.122,5.077h1.452l.46-2.085a5.452,5.452,0,0,1,.363-1.209h0a1.8,1.8,0,0,1,.614-.67h0a1.326,1.326,0,0,1,.708-.254h0a.654.654,0,0,1,.458.151h0a.535.535,0,0,1,.164.414h0a5.987,5.987,0,0,1-.143.77h0l-.637,2.882h1.452l.633-2.872a5.735,5.735,0,0,0,.166-1.014h0a1.247,1.247,0,0,0-.381-.952h0a1.469,1.469,0,0,0-1.045-.359h0a2.5,2.5,0,0,0-.943.18Z" transform="translate(0.958 0.831)" fill="#fff"/>
            <path id="Clip-17" d="M18.886,10.971a1.359,1.359,0,0,0-.475,1.037h0a1.165,1.165,0,0,0,.49.974h0a6.678,6.678,0,0,0,1.629.651h0a1.845,1.845,0,0,1,.6.257h0a.351.351,0,0,1,.107.25h0a.419.419,0,0,1-.207.349h0a1.358,1.358,0,0,1-.794.21h0a1.423,1.423,0,0,1-.758-.174h0a1.311,1.311,0,0,1-.467-.6h0l-1.405.211a2.007,2.007,0,0,0,.863,1.134h0a3.341,3.341,0,0,0,1.8.4h0a2.766,2.766,0,0,0,1.81-.53h0a1.584,1.584,0,0,0,.643-1.252h0a1.182,1.182,0,0,0-.507-.956h0a4.408,4.408,0,0,0-1.422-.574h0a5.172,5.172,0,0,1-.815-.268h0a.365.365,0,0,1-.2-.315h0a.412.412,0,0,1,.2-.331h0a1.156,1.156,0,0,1,.656-.143h0a1.529,1.529,0,0,1,.779.187h0a.792.792,0,0,1,.344.415h0l1.341-.22a1.556,1.556,0,0,0-.674-.97h0a2.806,2.806,0,0,0-1.566-.359h0a2.822,2.822,0,0,0-1.968.608Z" transform="translate(1.413 0.831)" fill="#fff"/>
            <path id="Clip-20" d="M25.265,8.754a1.236,1.236,0,0,0-.514.485h0a3.654,3.654,0,0,0-.268.865h0l-.116.522h-.809l-.223,1h.809l-.9,4.072h1.452l.9-4.072h1.027l.223-1H25.819l.08-.358a1.383,1.383,0,0,1,.167-.5h0a.447.447,0,0,1,.369-.149h0a2.925,2.925,0,0,1,.845.167h0l.283-.98a4.761,4.761,0,0,0-1.406-.23h0a1.929,1.929,0,0,0-.892.179Z" transform="translate(1.865 0.688)" fill="#fff"/>
            <path id="Clip-23" d="M27.091,11.462a3.008,3.008,0,0,0-.611,1.855h0a2.263,2.263,0,0,0,.677,1.714h0a2.438,2.438,0,0,0,1.761.647h0a2.768,2.768,0,0,0,1.423-.371h0A2.624,2.624,0,0,0,31.355,14.2h0l-1.3-.2a1.25,1.25,0,0,1-1.13.706h0a1.006,1.006,0,0,1-.745-.31h0a1.122,1.122,0,0,1-.306-.818h0c0-.028,0-.071.005-.124h3.641a3.641,3.641,0,0,0,.1-.893h0a2.168,2.168,0,0,0-.582-1.614h0a2.129,2.129,0,0,0-1.567-.577h0a2.815,2.815,0,0,0-2.383,1.1Zm1.419.2a1.174,1.174,0,0,1,.807-.321h0a.947.947,0,0,1,.717.282h0a1.188,1.188,0,0,1,.269.847h0c0,.032,0,.079-.005.138H28.028a1.666,1.666,0,0,1,.483-.946Z" transform="translate(2.125 0.831)" fill="#fff"/>
            <path id="Clip-26" d="M33.825,11.466l.218-.984H32.687l-1.122,5.077h1.451l.354-1.592a6.847,6.847,0,0,1,.43-1.417h0a1.8,1.8,0,0,1,.6-.714h0a1.34,1.34,0,0,1,.762-.269h0a1.306,1.306,0,0,1,.419.067h0l.556-1.122a1.758,1.758,0,0,0-.673-.149h0a2.082,2.082,0,0,0-1.644,1.1Z" transform="translate(2.533 0.831)" fill="#fff"/>
            <path id="Fill-28" d="M8.789,2.363l-2.2,4.5-.24-4.5H4.6l-2.214,4.5-.495-4.5H.189l.89,6.713H2.858L5.025,4.8l.347,4.272H7.177l3.538-6.713Z" transform="translate(0.015 0.19)" fill="#fff"/>
            <path id="Fill-29" d="M11.695,0l-.361,1.644h1.92L13.614,0Zm-.561,2.553L9.648,9.265h1.921l1.483-6.713Z" transform="translate(0.774)" fill="#fff"/>
            <path id="Clip-31" d="M16.06,3.677l.288-1.3H14.556L13.072,9.087h1.919l.469-2.1a9.007,9.007,0,0,1,.567-1.873h0a2.408,2.408,0,0,1,.8-.945h0a1.769,1.769,0,0,1,1.007-.354h0a1.7,1.7,0,0,1,.555.089h0l.735-1.485a2.331,2.331,0,0,0-.889-.2h0A2.752,2.752,0,0,0,16.06,3.677Z" transform="translate(1.049 0.178)" fill="#fff"/>
            <path id="Clip-34" d="M19.143,3.671a3.958,3.958,0,0,0-.81,2.451h0a2.987,2.987,0,0,0,.9,2.265h0a3.225,3.225,0,0,0,2.327.857h0a3.678,3.678,0,0,0,1.882-.488h0a3.488,3.488,0,0,0,1.341-1.47h0l-1.718-.272a1.651,1.651,0,0,1-1.492.937h0a1.327,1.327,0,0,1-.985-.412h0a1.468,1.468,0,0,1-.406-1.08h0c0-.038,0-.093.008-.165H25a4.815,4.815,0,0,0,.133-1.182h0a2.869,2.869,0,0,0-.768-2.132h0a2.82,2.82,0,0,0-2.073-.762h0a3.714,3.714,0,0,0-3.149,1.454Zm1.875.265a1.552,1.552,0,0,1,1.066-.422h0a1.249,1.249,0,0,1,.95.372h0A1.571,1.571,0,0,1,23.389,5h0c0,.042,0,.1-.005.184h-3a2.217,2.217,0,0,1,.64-1.252Z" transform="translate(1.471 0.178)" fill="#fff"/>
          </g>
        </g>
        <g id="discover" transform="translate(200.925)">
          <path id="rect-2" data-name="rect" d="M3.236,0A3.237,3.237,0,0,0,0,3.241V29.166a3.242,3.242,0,0,0,3.236,3.241H50.776a3.236,3.236,0,0,0,3.236-3.241V3.241A3.242,3.242,0,0,0,50.776,0Z" fill="#34495e"/>
          <g id="Group-2" data-name="Group" transform="translate(5.485 13.028)">
            <path id="Clip-42" d="M21.429.065h-.013a3.584,3.584,0,0,0-3.61,3.609h0a3.611,3.611,0,0,0,3.61,3.611h0a3.585,3.585,0,0,0,3.61-3.611h0V3.656a3.579,3.579,0,0,0-1.04-2.549h0A3.573,3.573,0,0,0,21.453.065h-.024Z" transform="translate(1.429 0.005)" fill="#f26e21"/>
            <path id="Fill-52" d="M5.787,7.061H7.1V.256H5.787Z" transform="translate(0.464 0.021)" fill="#e7e8e3"/>
            <path id="Clip-45" d="M13.534.98a3.488,3.488,0,0,0-.509.557h0a3.5,3.5,0,0,0-.749,2.142h0a3.529,3.529,0,0,0,3.611,3.542h.069A3.927,3.927,0,0,0,17.624,6.8h0l-.045-1.532a0,0,0,0,1,0,0h0V5.241s0,0,0,0h0V5.208A2.215,2.215,0,0,1,16,5.97h0a2.242,2.242,0,0,1-2.266-2.36h0a2.614,2.614,0,0,1,.679-1.749h0a2.116,2.116,0,0,1,1.472-.611h0a2.183,2.183,0,0,1,1.666.765h0V.417A3.483,3.483,0,0,0,15.888,0h0a4.028,4.028,0,0,0-2.354.98Z" transform="translate(0.985)" fill="#e7e8e3"/>
            <path id="Fill-47" d="M29.371.257l-.3.716L27.5,4.841,25.692.257H24.233L27.08,7.27h.764L30.829.257Z" transform="translate(1.944 0.021)" fill="#e7e8e3"/>
            <path id="Fill-48" d="M30.854.257v6.8h3.819V5.95H32.243V4.076H34.6V2.9H32.243V1.438h2.429V.257Z" transform="translate(2.476 0.021)" fill="#e7e8e3"/>
            <path id="Clip-50" d="M0,.257v6.8H1.946A3.765,3.765,0,0,0,4.375,6.3h0a3.434,3.434,0,0,0,1.25-2.639h0A3.36,3.36,0,0,0,1.946.257H0ZM1.32,1.438h.347a2.358,2.358,0,0,1,1.806.555h0a2.221,2.221,0,0,1,.764,1.666h0a2.076,2.076,0,0,1-.7,1.737h0a2.671,2.671,0,0,1-1.805.555H1.32Z" transform="translate(0 0.021)" fill="#e7e8e3"/>
            <path id="Clip-54" d="M7.868,2.137c0,.971.417,1.388,1.667,1.874h0a2.669,2.669,0,0,1,.9.417h0a.765.765,0,0,1,.416.694h0a.967.967,0,0,1-1.041.972h0a1.623,1.623,0,0,1-1.458-.9h0l-.833.833a2.723,2.723,0,0,0,2.36,1.319h0a2.189,2.189,0,0,0,2.36-2.222h0c0-1.18-.416-1.666-1.943-2.221h0c-.833-.278-1.041-.486-1.041-.833h0a.878.878,0,0,1,.971-.765h0a1.347,1.347,0,0,1,1.113.555h0l.695-.9A3.029,3.029,0,0,0,10.021.193h0A2.038,2.038,0,0,0,7.868,2.137Z" transform="translate(0.603 0.015)" fill="#e7e8e3"/>
            <path id="Clip-57" d="M35.225.257v6.8h1.318V4.353h.21l1.874,2.708h1.6L38.073,4.214a1.831,1.831,0,0,0,1.6-1.943h0c0-1.249-.9-2.014-2.429-2.014H35.225ZM36.543,1.3h.417c.834,0,1.32.347,1.32,1.042h0c0,.695-.486,1.04-1.32,1.04h-.417Z" transform="translate(2.826 0.021)" fill="#e7e8e3"/>
          </g>
        </g>
        <g id="american-express" transform="translate(133.95)">
          <path id="rect-3" data-name="rect" d="M3.236,0A3.237,3.237,0,0,0,0,3.241H0V29.166a3.242,3.242,0,0,0,3.236,3.241H50.776a3.236,3.236,0,0,0,3.236-3.241h0V3.241A3.242,3.242,0,0,0,50.776,0H3.236Z" fill="#0077a6"/>
          <g id="Group-3" data-name="Group" transform="translate(5.401 8.642)">
            <path id="Clip-63" d="M22.533,0H10.58L9.765,1.753,8.933.008H5.147V1.036L4.713,0h-3.1L0,3.658V7.249H2.206L2.738,6.06h.852l.5,1.189H8.347V6.66l.285.59h2.275l.264-.55v.55H21.209V5.328h.184s.187-.017.187.228h0V7.249h5.008V6.734a3.258,3.258,0,0,0,1.642.515h2.516l.547-1.3h.816l.584,1.3h4.156V5.991l.786,1.266h3.343V0H37.723V1.052L37.105,0H33.7V1.052L33.235,0H27.92a2.462,2.462,0,0,0-1.342.4h0V0H23.568l0,.282A2.022,2.022,0,0,0,22.538,0h-.005Z" transform="translate(0 0)" fill="#fff"/>
            <path id="Clip-66" d="M39.579,8.165a2.3,2.3,0,0,0-.977.265h0V8.165H34.829a1.966,1.966,0,0,0-.967.265h0V8.165H28.071V8.45a2.3,2.3,0,0,0-1.051-.285H22.514v.254a2.31,2.31,0,0,0-.926-.254H16.53L15.557,9.24l-.951-1.075H8.027v7.279h6.484l.972-1.109.91,1.109h4V13.676h1.166a2.183,2.183,0,0,0,.96-.193h0v1.961h3.243V13.471H25.9c.156,0,.231.032.231.205h0v1.767H36.5a2.015,2.015,0,0,0,.94-.217h0v.217h3.9A1.631,1.631,0,0,0,42.541,15h0V8.165Z" transform="translate(0.644 0.655)" fill="#fff"/>
            <path id="Fill-81" d="M22.649,6.1h1.264V.954H22.649Z" transform="translate(1.817 0.077)" fill="#0077a6"/>
            <path id="Clip-84" d="M17.592.959V6.1h1.264V4.29h1.653c.438,0,.61.435.622.871h0l.032.943h1.229l-.045-1.056c0-.827-.23-1.217-.827-1.288h0a1.4,1.4,0,0,0,.873-1.423h0A1.358,1.358,0,0,0,20.877.959H17.592Zm1.264,1.1h1.578a.608.608,0,0,1,.7.591h0c0,.346-.185.575-.7.575H18.856Z" transform="translate(1.412 0.077)" fill="#0077a6"/>
            <path id="Clip-70" d="M37.423,9.186a1.419,1.419,0,0,0-1.5,1.493h0c0,.849.327,1.546,1.728,1.583h0c.094,0,.708.036.873.06h0c.374.039.466.188.466.423h0c0,.494-.522.494-.874.494H36.044v1.1H38.7a1.5,1.5,0,0,0,1.619-1.481h0c0-.827-.13-1.6-1.681-1.682h0c-.094,0-.782-.035-.886-.035h0c-.3-.029-.534-.093-.534-.408h0c0-.45.389-.448.79-.447h0c.042,0,.085,0,.127,0h1.942v-1.1Z" transform="translate(2.882 0.737)" fill="#0077a6"/>
            <path id="Clip-73" d="M33.022,9.186a1.419,1.419,0,0,0-1.5,1.493h0c0,.849.324,1.546,1.728,1.583h0c.092,0,.706.036.873.06h0c.373.039.466.188.466.423h0c0,.494-.524.494-.874.494H31.642v1.1H34.3a1.5,1.5,0,0,0,1.619-1.481h0c0-.827-.131-1.6-1.683-1.682h0c-.091,0-.781-.035-.883-.035h0c-.3-.029-.535-.093-.535-.408h0c0-.45.389-.448.79-.447h0c.042,0,.086,0,.129,0h1.941v-1.1Z" transform="translate(2.529 0.737)" fill="#0077a6"/>
            <path id="Clip-76" d="M8.819,9.176V14.32h4.817l1.517-1.7,1.481,1.712h2.424V12.585h1.7c.655,0,1.849-.023,1.849-1.825h0a1.425,1.425,0,0,0-1.527-1.575H16.644l-1.448,1.6L13.8,9.176Zm7.172,2.514L17.806,9.68v4.157Zm-5.927-1.406,3.072.006,1.23,1.4-1.389,1.55H10.063V12.224H12.85v-.977H10.063Zm9.016.008h1.579a.607.607,0,0,1,.695.592h0a.609.609,0,0,1-.7.644H19.079Z" transform="translate(0.708 0.736)" fill="#0077a6"/>
            <path id="Clip-79" d="M22.181,9.186v5.145h1.263V12.516H25.1c.435,0,.607.436.619.873h0l.035.942h1.229l-.046-1.056c0-.827-.229-1.218-.826-1.287h0a1.4,1.4,0,0,0,.873-1.424h0a1.358,1.358,0,0,0-1.516-1.378H22.181Zm1.263,1.1h1.578a.606.606,0,0,1,.695.591h0c0,.345-.184.575-.7.575H23.444Z" transform="translate(1.78 0.737)" fill="#0077a6"/>
            <path id="Fill-82" d="M13.077.959V6.1H17.2V5.024H14.34V4.008h2.784V3.032H14.34V2.067H17.2V.959Z" transform="translate(1.049 0.077)" fill="#0077a6"/>
            <path id="Fill-86" d="M11.212.959,9.662,4.41,8.116.959H6.137V5.913L3.932.959H2.26L.01,6.1H1.342l.494-1.149h2.52l.5,1.149H7.4V2.285L9.087,6.1h1.148l1.729-3.756V6.1h1.264V.959ZM3.066,2.047l.784,1.8H2.312Z" transform="translate(0.001 0.077)" fill="#0077a6"/>
            <path id="Clip-88" d="M36.8.957V4.52L34.675.957H32.807V5.789L30.656.959H28.985l-1.74,3.985s-.736,0-.81-.018h0c-.3-.062-.779-.277-.785-1.184h0V3.369c0-1.206.655-1.294,1.5-1.294h.779V.957h-1.65c-.575,0-1.823.439-1.866,2.552h0c-.029,1.424.592,2.6,1.993,2.6h1.666l.493-1.149h2.52l.5,1.149h2.491V2.339l2.274,3.769h1.722V.957ZM29.8,2.05l.792,1.8H29.046Z" transform="translate(1.958 0.077)" fill="#0077a6"/>
            <path id="Fill-68" d="M27.225,9.175v5.145h4.13V13.24H28.489V12.224h2.785v-.975H28.489v-.965h2.866V9.175Z" transform="translate(2.185 0.736)" fill="#0077a6"/>
          </g>
        </g>
        <g id="mastercard" transform="translate(66.975)">
          <path id="back" d="M3.237,0A3.236,3.236,0,0,0,0,3.241H0V29.166a3.243,3.243,0,0,0,3.237,3.241H50.775a3.236,3.236,0,0,0,3.237-3.241h0V3.241A3.242,3.242,0,0,0,50.775,0H3.237Z" fill="#00437c"/>
          <g id="Group-4" data-name="Group" transform="translate(10.802 6.481)">
            <path id="Path" d="M31.272,9.67a9.646,9.646,0,1,1-19.293,0v0a9.646,9.646,0,1,1,19.293-.005Z" transform="translate(0.961 0)" fill="#ffb316"/>
            <path id="Path-2" data-name="Path" d="M9.585,0a9.667,9.667,0,1,0,6.552,16.816h0a9.558,9.558,0,0,0,.98-1.035H15.142a9.277,9.277,0,0,1-.719-.995h3.408a9.733,9.733,0,0,0,.562-1.035H13.861a9.471,9.471,0,0,1-.4-1.015H18.8a9.65,9.65,0,0,0,.5-3.066,9.754,9.754,0,0,0-.222-2.07h-5.9a9.85,9.85,0,0,1,.275-1.015h5.342a9.7,9.7,0,0,0-.416-1.036H13.86a9.4,9.4,0,0,1,.553-1.015h3.406A9.785,9.785,0,0,0,17.071,3.5h-1.9a8.95,8.95,0,0,1,.967-.976A9.6,9.6,0,0,0,9.647,0Z" transform="translate(0 0)" fill="#ff162a"/>
            <g id="Group_328" data-name="Group 328" transform="translate(0.915 7.173)">
              <path id="Path-3" data-name="Path" d="M11.463,4.938l.129-.875c-.07,0-.174.03-.265.03-.357,0-.4-.19-.374-.331l.289-1.785h.543l.131-.968H11.4l.1-.6H10.481C10.459.43,9.875,3.793,9.875,4.2a.763.763,0,0,0,.818.872A2.7,2.7,0,0,0,11.463,4.938Z" transform="translate(0.738 0.02)" fill="#fff"/>
              <path id="Shape" d="M11.646,3.234a1.614,1.614,0,0,0,1.774,1.8,2.6,2.6,0,0,0,1.085-.169l.181-.993a3.176,3.176,0,0,1-1.091.255c-1.1,0-.909-.825-.909-.825h2.088a7.458,7.458,0,0,0,.134-.939,1.379,1.379,0,0,0-1.465-1.5C12.41.859,11.646,1.974,11.646,3.234Zm1.8-1.454c.579,0,.472.653.472.706H12.78C12.78,2.419,12.887,1.78,13.448,1.78Z" transform="translate(0.88 0.056)" fill="#fff"/>
              <path id="Path-4" data-name="Path" d="M19.538,4.97l.184-1.123a2.458,2.458,0,0,1-.85.255,1.019,1.019,0,0,1-1.021-1.157c0-1.216.627-1.885,1.325-1.885a1.825,1.825,0,0,1,.943.295l.167-1.09A3.672,3.672,0,0,0,19.131.012c-1.186,0-2.34,1.03-2.34,2.967,0,1.283.623,2.131,1.849,2.131A4.722,4.722,0,0,0,19.538,4.97Z" transform="translate(1.293 -0.012)" fill="#fff"/>
              <path id="Shape-2" data-name="Shape" d="M6.257.874A3.548,3.548,0,0,0,5.013,1.1l-.149.887a3.247,3.247,0,0,1,1.119-.181c.382,0,.662.043.662.355a.662.662,0,0,1-.034.259s-.3-.026-.441-.026c-.888,0-1.821.38-1.821,1.526a.976.976,0,0,0,.991,1.11,1.334,1.334,0,0,0,1.054-.473L6.36,4.95h.9l.4-2.835A1.215,1.215,0,0,0,6.257.874Zm.22,2.307c.02.173-.109.985-.727.985a.375.375,0,0,1-.4-.389c0-.281.153-.62.906-.62A.67.67,0,0,1,6.478,3.181Z" transform="translate(0.294 0.057)" fill="#fff"/>
              <path id="Path-5" data-name="Path" d="M8.4,5.007c.231,0,1.553.059,1.553-1.308,0-1.279-1.224-1.026-1.224-1.54,0-.255.2-.336.564-.336.145,0,.7.047.7.047l.13-.909A4.8,4.8,0,0,0,9.175.88c-.761,0-1.531.3-1.531,1.343,0,1.18,1.286,1.06,1.286,1.557,0,.331-.36.359-.637.359a3.339,3.339,0,0,1-.912-.157l-.137.9A3.21,3.21,0,0,0,8.4,5.007Z" transform="translate(0.526 0.057)" fill="#fff"/>
              <path id="Shape-3" data-name="Shape" d="M27.428.119,27.207,1.5a1.357,1.357,0,0,0-.992-.535c-.942,0-1.726,1.137-1.726,2.444,0,.843.418,1.669,1.274,1.669a1.281,1.281,0,0,0,.956-.43l-.045.367h1L28.459.116Zm-.477,2.687c0,.543-.269,1.269-.826,1.269-.37,0-.542-.311-.542-.8,0-.8.357-1.325.808-1.325C26.761,1.95,26.951,2.206,26.951,2.806Z" transform="translate(1.91 -0.004)" fill="#fff"/>
              <path id="Path-6" data-name="Path" d="M1.04,5.016l.626-3.7.091,3.7h.708l1.32-3.7L3.2,5.016H4.252l.81-4.9H3.436L2.424,3.122,2.371.115H.872l-.822,4.9Z" transform="translate(-0.051 -0.004)" fill="#fff"/>
              <path id="Path-7" data-name="Path" d="M15.695,4.958c.3-1.7.354-3.087,1.068-2.835A3.989,3.989,0,0,1,17.144.93a1.068,1.068,0,0,0-.2-.014c-.459,0-.8.63-.8.63l.091-.578H15.28l-.64,3.99Z" transform="translate(1.12 0.06)" fill="#fff"/>
              <path id="Shape-4" data-name="Shape" d="M21.67.874a3.544,3.544,0,0,0-1.244.226l-.148.887A3.239,3.239,0,0,1,21.4,1.806c.382,0,.662.043.662.355a.656.656,0,0,1-.034.259s-.3-.026-.442-.026c-.888,0-1.82.38-1.82,1.526a.976.976,0,0,0,.991,1.11,1.331,1.331,0,0,0,1.053-.473l-.033.394h.9l.4-2.835A1.215,1.215,0,0,0,21.67.874Zm.221,2.307c.02.173-.108.985-.727.985a.374.374,0,0,1-.4-.389c0-.281.153-.62.9-.62A.672.672,0,0,1,21.89,3.181Z" transform="translate(1.531 0.057)" fill="#fff"/>
              <path id="Path-8" data-name="Path" d="M23.677,4.958c.3-1.7.355-3.087,1.069-2.835A3.962,3.962,0,0,1,25.127.93a1.084,1.084,0,0,0-.2-.014c-.46,0-.8.63-.8.63L24.22.969h-.957l-.64,3.989h1.054Z" transform="translate(1.76 0.06)" fill="#fff"/>
            </g>
          </g>
        </g>
        <g id="visa">
          <path id="rect-4" data-name="rect" d="M3.237,0A3.236,3.236,0,0,0,0,3.241H0V29.166a3.243,3.243,0,0,0,3.237,3.241H50.775a3.236,3.236,0,0,0,3.237-3.241h0V3.241A3.242,3.242,0,0,0,50.775,0H3.237Z" fill="#2b73b6"/>
          <g id="Group-5" data-name="Group" transform="translate(10.939 10.871)">
            <path id="Fill-159" d="M12.1.166,10.463,10.234h2.622L14.723.166Z" transform="translate(0.84 0.013)" fill="#fff"/>
            <path id="Clip-161" d="M9.1.166,6.6,7.091,6.3,5.6h0l-.88-4.527A1.122,1.122,0,0,0,4.179.166H.048L0,.338A9.75,9.75,0,0,1,2.741,1.487h0l2.277,8.747H7.749L11.919.166Z" transform="translate(0 0.013)" fill="#fff"/>
            <path id="Clip-164" d="M26.223.166a1.2,1.2,0,0,0-1.211.75h0L21.1,10.234h2.732l.546-1.5h3.333l.308,1.5h2.406L28.33.166Zm.291,2.739.776,3.768H25.138Z" transform="translate(1.693 0.013)" fill="#fff"/>
            <path id="Clip-167" d="M15.474,3.333c0,2.6,3.626,2.634,3.626,4h0c0,1.365-3.252,1.121-4.325.26h0l-.39,2.259a7.341,7.341,0,0,0,2.959.569h0c1.789,0,4.487-.927,4.487-3.447h0c0-2.616-3.658-2.86-3.658-4h0c0-1.139,2.553-.993,3.675-.375h0L22.221.439A7.566,7.566,0,0,0,19.864,0h0c-1.3,0-4.39.568-4.39,3.333Z" transform="translate(1.154 0)" fill="#fff"/>
            <path id="Clip-170" d="M.048.166,0,.338A10.145,10.145,0,0,1,3.889,2.29h0A7.854,7.854,0,0,1,6.3,5.6h0l-.88-4.527A1.122,1.122,0,0,0,4.179.166H.048Z" transform="translate(0 0.013)" fill="#ffa61f"/>
          </g>
        </g>
      </g>
    </g>
  </g>
</svg>
