<svg xmlns="http://www.w3.org/2000/svg" xmlns:xlink="http://www.w3.org/1999/xlink" width="66.693" height="54.466" viewBox="0 0 66.693 54.466">
  <defs>
    <filter id="Ellipse_3" x="18.693" y="0" width="48" height="48" filterUnits="userSpaceOnUse">
      <feOffset dy="3" input="SourceAlpha"/>
      <feGaussianBlur stdDeviation="3" result="blur"/>
      <feFlood flood-opacity="0.161"/>
      <feComposite operator="in" in2="blur"/>
      <feComposite in="SourceGraphic"/>
    </filter>
  </defs>
  <g id="Group_9730" data-name="Group 9730" transform="translate(-1084 -957.748)">
    <g id="Group_2394" data-name="Group 2394" transform="translate(0 -89)">
      <g transform="matrix(1, 0, 0, 1, 1084, 1046.75)" filter="url(#Ellipse_3)">
        <circle id="Ellipse_3-2" data-name="Ellipse 3" cx="15" cy="15" r="15" transform="translate(27.69 6)" fill="#feb700"/>
      </g>
      <g id="Group_2393" data-name="Group 2393" transform="translate(1795.337 273.182)">
        <path id="Path_25001" data-name="Path 25001" d="M-583.6,791.859a21.529,21.529,0,0,0-.26-2.442,2.532,2.532,0,0,0-2.877-1.742,3.486,3.486,0,0,0-3.289,2.679,2.289,2.289,0,0,1-2.771,1.885c-1.643-.2-3.286-.405-4.924-.643a2.117,2.117,0,0,1-1.95-2.86,11,11,0,0,1,7.62-8.491,17.641,17.641,0,0,1,13.207.4,8.56,8.56,0,0,1,5.518,7.843c.182,3.941.111,7.894.149,11.842.006.635.017,1.271,0,1.906a5.865,5.865,0,0,0,1.341,3.9,7.135,7.135,0,0,1,.969,1.542,1.824,1.824,0,0,1-.474,2.182c-1.535,1.38-3.089,2.741-4.682,4.054a2.342,2.342,0,0,1-2.958-.122c-.91-.845-1.753-1.761-2.643-2.664a12.053,12.053,0,0,1-4.568,2.834,14.032,14.032,0,0,1-7.592.307,8.5,8.5,0,0,1-6.545-6.6c-1.017-4.287-.328-8.23,2.958-11.413a14.01,14.01,0,0,1,7.347-3.455C-587.961,792.414-585.861,792.187-583.6,791.859Zm10.517,16.489c-.327-.436-.588-.779-.843-1.125a7.737,7.737,0,0,1-1.578-4.755q.017-2.452,0-4.9c-.029-2.973,0-5.948-.132-8.917a6.1,6.1,0,0,0-3.689-5.613,16.775,16.775,0,0,0-4.259-1.307A14.776,14.776,0,0,0-592.613,783a8.577,8.577,0,0,0-4.79,6.307l5.059.629a5.8,5.8,0,0,1,5.375-4.573,5.019,5.019,0,0,1,5.063,2.607c.883,1.989.493,4.086.555,6.066-2.649.325-5.2.585-7.73.966a12.865,12.865,0,0,0-5.957,2.344c-3.054,2.314-3.77,5.522-3.194,9.12a6.441,6.441,0,0,0,5.348,5.627c3.847.665,7.31-.116,10.081-3.076.489-.522,1-1.019,1.52-1.54,1.294,1.567,2.2,3.4,3.9,4.587Z" transform="translate(-95.507 0)" fill="#2c1b18"/>
        <path id="Path_25002" data-name="Path 25002" d="M-682.429,1052.753c-11.318-.141-20.4-3.5-28.145-10.38a1.713,1.713,0,0,1-.472-2.354,1.7,1.7,0,0,1,2.369-.391,51.557,51.557,0,0,0,11.369,4.8,51.545,51.545,0,0,0,21.215,1.6,53.246,53.246,0,0,0,12.64-3.375,4.434,4.434,0,0,1,1.636-.337,1.708,1.708,0,0,1,1.605,1.171,1.7,1.7,0,0,1-.37,1.95,8.45,8.45,0,0,1-1.331,1.05,37.661,37.661,0,0,1-15.419,5.746C-679.346,1052.536-681.388,1052.651-682.429,1052.753Zm-20.38-7.64a36.914,36.914,0,0,0,18.219,5.253,37.589,37.589,0,0,0,18.518-4.183A54.85,54.85,0,0,1-702.809,1045.113Z" transform="translate(0 -224.722)" fill="#2c1b18"/>
        <path id="Path_25003" data-name="Path 25003" d="M-382.145,1013.291c1.208.208,2.56.365,3.873.686a2.068,2.068,0,0,1,1.763,2.318,14.992,14.992,0,0,1-3.806,10.348,5.894,5.894,0,0,1-1.66,1.255,1.384,1.384,0,0,1-1.646-.257,1.451,1.451,0,0,1-.43-1.615c.424-1.219.935-2.411,1.317-3.642.327-1.056.527-2.151.78-3.23.11-.467-.1-.694-.559-.69-1.537.015-3.074.022-4.61.075-.747.025-1.489.162-2.235.216a1.591,1.591,0,0,1-1.734-.917,1.647,1.647,0,0,1,.546-1.954,9.832,9.832,0,0,1,4.4-2.033C-384.88,1013.6-383.591,1013.488-382.145,1013.291Zm2.153,8.449a12.079,12.079,0,0,0,1.182-4.947c0-.5-.2-.719-.636-.755-1.259-.105-2.52-.188-3.781-.268-.11-.007-.226.08-.432.159.8.134,1.493.21,2.168.372a2.243,2.243,0,0,1,1.887,2.634C-379.693,1019.874-379.86,1020.805-379.992,1021.74Z" transform="translate(-276.505 -202.235)" fill="#2c1b18"/>
        <path id="Path_25004" data-name="Path 25004" d="M-527.645,905.554c-.1,2.582.272,4.977-.444,7.3a7.247,7.247,0,0,1-3.345,4.53,4.661,4.661,0,0,1-7.143-3.769c-.388-3.994,1.706-6.863,5.666-7.562C-531.227,905.757-529.5,905.721-527.645,905.554Zm-2.387,2.39a24.039,24.039,0,0,0-3.366.649c-2.584.883-3.3,2.939-2.706,5.461a2.116,2.116,0,0,0,2.84,1.576,3.592,3.592,0,0,0,1.992-1.454C-529.964,912.34-529.895,910.258-530.032,907.944Z" transform="translate(-149.185 -109.176)" fill="#2c1b18"/>
      </g>
    </g>
  </g>
</svg>
